
<svg xmlns="http://www.w3.org/2000/svg" version="1.1" xmlns:xlink="http://www.w3.org/1999/xlink" preserveAspectRatio="none" x="0px" y="0px" width="800px" height="600px" viewBox="0 0 800 600">
<defs>
<g id="Layer0_0_FILL">
<path fill="#000000" stroke="none" d="
M 96.45 87.75
Q 96.5 87.65 96.45 87.6 96.4 87.55 96.35 87.65 96.0412109375 87.9201171875 95.7 88.25
L 96.55 88.25
Q 96.4306640625 87.9626953125 96.45 87.75
M 98.65 83.75
Q 98.4 83.7 98.5 83.95 98.596484375 84.1751953125 98.75 84.5
L 98.75 83.75 98.65 83.75
M 90.25 30.4
Q 89.5298828125 29.6798828125 88.75 29 84.259765625 24.8837890625 78.75 22.2 77.838671875 21.7978515625 76.9 21.4 76.412109375 21.1935546875 75.9 21 68.5650390625 18.1 60.55 18.1 52.530078125 18.1 45.15 21 44.7087890625 21.1818359375 44.25 21.35 44.225 21.389453125 44.2 21.4 37.5873046875 24.202734375 32.3 29 31.5701171875 29.6798828125 30.85 30.4 29.753515625 31.5060546875 28.75 32.65 24.4451171875 37.66796875 21.85 43.75 18.55 51.55 18.55 60.1 18.55 62.65 18.9 65.4 19.5 70.4 21.3 75.1 23.05 79.65 25.85 83.75 26.169921875 84.2201171875 26.5 84.65 27.455859375 86.009765625 28.5 87.25 28.6224609375 87.40078125 28.75 87.55 29.5005859375 88.4240234375 30.3 89.25 34.763671875 93.9048828125 40.6 97.05 49.9 102.1 60.55 102.1 71.15 102.1 80.45 97.05 86.316015625 93.90625 90.8 89.25 91.271484375 88.7587890625 91.7 88.25
L 91.75 88.2
Q 93.6298828125 86.130859375 95.25 83.75 96.25625 82.27578125 97.1 80.75 101.170703125 73.6345703125 102.2 65.4 102.55 62.65 102.55 60.1 102.55 51.55 99.25 43.75 96.4765625 37.2498046875 91.75 32 91.0232421875 31.1798828125 90.25 30.4
M 84.75 31.8
Q 85 31.9 85.05 32.3
L 85.2 34.5
Q 85.2 34.65 84.95 34.75 84.75 34.85 84.5 34.85
L 81.05 34.9
Q 81.05 33.05 81 32.8 80.9 31.9 81.45 31.8 81.55 31.75 82.85 31.8 84.1 31.85 84.3 31.8 84.6 31.75 84.75 31.8
M 83.35 36.2
Q 82.55 36.2 81.1 36.2 79.65 36.2 79.3 36.25 79.025 36.25 78.75 36.25 78.675 36.25 78.6 36.25 78.25 36.25 78.15 36.15 78.05 36.1 77.65 36.1 77.2 36.15 77.1 36.15 76.95 36.15 76.75 36 76.55 35.8 76.5 35.75 76.3 35.55 76.7 35.5 76.85 35.45 77.95 35.4 78.41484375 35.4 78.75 35.4 79.1359375 35.4 79.35 35.4 79.9 35.4 80.9 35.45 81.35 35.5 82.35 35.5 83.45 35.5 84.15 35.4 86.8 35.25 86.95 35.25 87.5 35.25 88.5 35.2 89.4 35.2 89.6 35.15 89.85 35.1 90 35.15 90.15 35.2 90 35.35
L 89.45 35.95
Q 88.1 36.1 87.65 36.1 84.45 36.25 83.35 36.2
M 87.45 34.45
Q 87.35 34.4 87.35 34.25
L 87.4 31.75 89.7 31.65
Q 89.8 33.9 89.75 34.15 89.7 34.45 89.35 34.45 87.9 34.55 87.65 34.5 87.45 34.5 87.45 34.45
M 87.95 37
Q 88.4 37 88.55 37.05 88.8 37.15 88.75 37.45 88.75 37.55 88.75 38.6 88.8 39.6 88.75 39.9 88.7 40.3 88.7 41.45 88.75 42.4 88.75 42.9 88.8 43.35 88.75 45.3 88.75 45.7 88.45 45.7
L 85.65 45.95
Q 85.5 46 85.4 46.3 85.3 46.55 85.3 46.75 85.3 47.15 85.05 47.2 84.9 47.2 80.9 47.35 80.7 47.3 80.65 47.15 80.6 47 80.65 46.8 80.7 46.6 82.25 46.45 83.05 46.35 83.85 46.3 81.45 46.05 80.8 46.05 80.45 46 80.1 45.9 79.8 45.85 79.75 45.85 79.1677734375 45.85 78.75 45.85 77.8041015625 45.834765625 77.7 45.8 77.45 45.75 77.35 45.65 77.3 45.55 77.3 45.35 77.45 43.9 77.4 43.6 77.35 43.4 77.3 41.8 77.3 40.25 77.35 40 77.35 39.75 77.4 37.15 78.1736328125 37.1357421875 78.75 37.1 80.1859375 37.1 80.4 37.1 80.9 37 80.7 37.3 80.45 37.75 80.4 38.8 81.15 37.75 81.3 37.6 81.9 37 82.9 36.95 83.9 36.9 84.65 37.45 85.3 37.9 85.6 38.8 85.75 37.5 84.95 37.05
L 87.95 37
M 81.65 47.8
Q 82.7 47.7 83.05 47.7
L 85.3 47.7 85.3 48.35
Q 83.6 48.5 82.9 48.5
L 80.65 48.55 80.65 47.95 81.65 47.8
M 84.95 49.05
Q 85.3 49.1 85.35 49.35 85.35 49.65 84.9 49.65
L 80.9 49.65
Q 80.6 49.65 80.6 49.45 80.55 49.3 80.85 49.25 81.15 49.2 82.95 49.15 84.75 49.05 84.95 49.05
M 89.7 46.25
Q 89.95 46.15 90.05 46.2 90.2 46.25 90.2 46.5 90.2 46.85 90.25 50.4 90.2 51 90.2 51.05 90.1 51.3 89.6 51.35 89.1 51.4 88.1 51.4 87.15 51.4 87.05 51.4 86.85 51.4 86.8 51.35 86.7 51.3 86.7 51.1 86.7 51 86.75 50.15 86.8 49.25 86.8 48.95
L 86.75 46.5 87.45 46.45
Q 88.2 46.35 88.5 46.35 89.4 46.35 89.7 46.25
M 91.45 57.1
Q 91.5396484375 56.9654296875 91.75 57.15 91.77421875 57.17421875 91.8 57.2 91.85 57.3 92.2 57.65 92.45 57.9 92.5 58.05 92.6 58.3 93 59.05 92.127734375 59.5734375 91.75 59.8 91.6947265625 59.8681640625 91.65 59.9 90.25 60.9 90 61 89.6 61.1 89.4 61.2 88.95 61.4 88.75 61.55 88.55 61.7 87.35 62.45
L 86 63.25
Q 85.8 63.45 85.2 63.8 84.6 64.15 84.45 64.15 84.3 64.15 83.95 64.35 83.55 64.6 83.4 64.75 83 65 82.35 65.4
L 81.8 65.7
Q 81.6 65.8 80.6 66.4 79.7 66.95 79.45 67.1 79.35 67.15 79.05 67.25 78.859765625 67.281640625 78.75 67.3 78.6865234375 67.3634765625 78.65 67.4 78.55 67.5 78 67.75 77.45 68 77.35 68.1 77.15 68.2 76.55 68.6 75.9 68.95 75.75 69 75.1607421875 69.3392578125 74.75 69.55 74.0107421875 69.9857421875 73.85 70.05
L 72.2 71.05 72.05 70.9
Q 72.15 70.3 72.15 70.15
L 72.15 69.5
Q 72.1 69.1 72.5 69.1
L 74.4 69.05 74.4 69
Q 74.4 68.2916015625 74.4 68.05 74.35 67.6 74.75 67.6 74.85 67.55 75.85 67.55 76.8 67.5 76.9 67.45 77 67.45 77.2 67.4 77.3 67.35 77.3 67.2
L 77.35 65.75 79.55 65.7
Q 79.95 65.75 80.05 65.4
L 80.05 64.55
Q 80.05 64.45 80.1 64.45 80.1 64.4 80.25 64.4
L 82.4 64.3
Q 82.7 64.3 82.8 64.2 82.9 64.1 82.95 63.85
L 82.95 62.9
Q 82.95 62.85 82.95 62.8 83 62.65 83.1 62.65 83.2 62.65 84 62.55 84.9 62.45 85.25 62.6 85.5 62.65 85.5 62.55 85.5 62.5 85.5 62.3
L 85.55 61.35
Q 85.55 61 86 60.95 86.1 60.95 86.95 60.95 87.7 60.95 87.9 60.95 88.15 60.85 88.2 60.85 88.3 60.75 88.3 60.6
L 88.3 59.5
Q 88.3 59.15 88.7 59.15 88.95 59.15 91.15 59.05
L 91.25 57.55
Q 91.3 57.2 91.45 57.1
M 88.75 52
Q 89.1 52 89.4 52 89.5 52 89.75 52 89.95 52 90.1 52.15 90.2 52.3 90.05 52.5 89.75 52.8 89.7 52.85 89.5 53 88.95 53 87.5 53.05 86.1 53.2 85.2 53.35 83.6 53.4 82.05 53.5 81.2 53.5 79.846875 53.54453125 78.75 53.55 76.1591796875 53.65 75 53.65
L 65.75 53.7 66.4 54.4
Q 67.05 55.15 67.25 55.5 67.6 56.05 69.05 57.85
L 68.7 55.75
Q 68.65 55.65 68.75 55.5 68.85 55.45 69.05 55.4 69.55 55.3 70.75 55.3 71.2 55.3 71.2 55.75
L 71.25 57.3
Q 71.3 56.9 71.5 56.5 71.9 55.65 72.45 55.5 73.05 55.35 73.5 55.35
L 74.1 55.45
Q 74.4912109375 55.4935546875 74.75 55.6 75.0869140625 55.7890625 75.2 56.1
L 75.55 57
Q 75.65 55.95 75.65 55.7 75.6 55.5 75.7 55.4 75.75 55.2 76 55.2 76.4 55.15 76.5 55.15 76.9 55.15 77.15 55.3 77.55 55.6 77.65 56.2 77.65 56.05 77.7 55.9 77.85 55.5 78.15 55.3 78.4541015625 55.1580078125 78.75 55.1 79.183984375 55.0716796875 79.6 55.25 79.95 55.4 80.15 55.6
L 80.45 55.35
Q 80.85 55.1 81.45 55.1 82.05 55.1 82.5 55.5 82.7 55.7 82.8 55.9
L 82.95 55.05 83.85 54.95
Q 84.85 54.8 85.65 54.75 86.2 54.7 87.95 54.6 89.45 54.55 89.65 54.5 90.35 54.4 90.35 54.85 90.35 54.95 90.4 55.6 90.4 56.1 90.4 56.2 90.4 56.3 90.35 56.45 90.35 56.55 90.2 56.65 90.05 56.8 89.4 57.2 88.8 57.6 88.45 57.75 88.3 57.85 87.95 58.05 87.75 58.2 87.55 58.25 87.45 58.3 86.95 58.65 86.45 58.95 86.15 59.05 86 59.1 85.25 59.6 84.5 60.15 84.15 60.3 83.85 60.45 83.05 60.95 82.2 61.45 81.95 61.55 81.8 61.6 80.5 62.5 79.3 63.25 78.95 63.4 78.8646484375 63.4169921875 78.75 63.45 78.529296875 63.56953125 78.2 63.8 77.65 64.1 77.6 64.15 77.55 64.15 75.4 65.4 75.0205078125 65.6146484375 74.75 65.75 74.2005859375 66.0666015625 74.1 66.1 72.3 66.95 72.05 66.95 71.65 66.95 71.55 66.65
L 71.3 65.4
Q 70.9 63.4 70.3 62.5 69.8 61.75 69.75 61.35 69.75 61.15 69.65 61.05 69.35 60.4 69.2 60.25 69.15 60.25 69.05 59.95 68.95 59.65 68.9 59.55 68.4 59.1 68.3 58.9 68.25 58.85 68.2 58.7 68.15 58.5 68.05 58.35 67.8 58 67.1 57.05 66.25 55.95 65.9 55.6 64.5 53.9 64.1 53.55 63 52.5 62.55 52.2 62.05 51.9 61.55 51.55 61.35 51.3 61.2 51.15 60.95 50.95 60.75 50.95 60.35 51 59.35 51.7 58.05 52.85 57.75 53.05 57.6 53.15 56.55 54.1 55.4 55.1 54.6 56 54.25 56.35 53.35 57.5 52.4 58.7 52.25 58.9 51.9 59.5 51.6 59.95 51 60.95 50.7 61.55 50.4 62.2 50.1 63.45 49.75 64.6 49.6 65.4
L 49.35 67.1 49.1 67.2 46.8 66.1
Q 46.55 65.95 45.6 65.4 44.7 64.85 44.6 64.8 44.4451171875 64.7484375 44.25 64.6 44.067578125 64.493359375 43.85 64.3 43.7 64.2 43.1 64 42.45 63.7 42.35 63.6 42.25 63.55 41.6 63.1 40.9 62.65 40.65 62.5 40.45 62.3 39.25 61.65 38.15 61.05 37.95 60.85 37.7 60.65 37.2 60.4 36.7 60.2 36.65 60.1 36.5 59.9 36.05 59.6 35.55 59.25 35.25 59.15 35 59.1 35 59 34.95 58.85 34.9 58.8 34.65 58.75 34.45 58.65 34.05 58.55 34 58.45 33.9 58.4 33.35 58.05 32.7 57.7 32.55 57.55
L 30.95 56.5
Q 30.95 54.95 30.9 54.75 30.9 54.5 31.35 54.5 31.5 54.5 32.6 54.55 33.75 54.6 34 54.6
L 37.25 54.85
Q 37.65 54.9 38.5 54.9
L 38.6 55.85 38.8 55.55
Q 39.05 55.2 39.3 55.15 39.8 55 40.1 55 40.65 55.05 41.2 55.4 42 55 42.35 54.95 42.55 54.95 42.75 55 43.15 55.05 43.25 55.15 43.6 55.35 43.75 56.1 43.92578125 55.50234375 44.25 55.3 44.38671875 55.25 44.55 55.25
L 45.65 55.25 45.5 55.6
Q 45.4 55.95 45.4 56.3 45.4 56.8 45.45 57.1 45.55 56.8 45.7 56.5 46 55.8 46.25 55.65 46.6 55.5 47.1 55.4 47.6 55.25 47.85 55.3 48 55.35 48.5 55.4 48.9 55.45 49 55.55 49.3 55.75 49.5 56.15 49.85 56.75 49.9 57.35 50 56.5 49.9 55.95 49.8 55.6 49.5 55.25 49.95 55.2 50.5 55.3 51.1 55.35 51.15 55.35 51.45 55.35 51.95 55.3 52.15 55.3 52.2 55.4 52.35 55.5 52.25 55.7 52.15 55.9 51.9 56.95 51.75 57.5 51.65 58
L 54.75 54
Q 53.65 54.2 53.35 54.1 53.15 54 50.2 54 48.95 54.1 48 54.1 46.15 54.2 45.2 54.1 44.7751953125 54.052734375 44.25 54 43.662890625 53.9763671875 42.95 53.95 41.6 53.95 41.35 53.9 40.65 53.85 38.95 53.75 37 53.65 36.45 53.7 35.9 53.75 35.1 53.7 34.3 53.65 33.75 53.5 33.35 53.4 32.55 53.4 31.75 53.45 31.55 53.45 31.3 53.45 30.75 53.35 30.35 53.25 30.1 53.15 29.85 53.1 29.7 53.05 29.4 52.95 29.3 52.8 29.15 52.65 29.25 52.45 29.4 52.25 29.6 52.2 29.7 52.2 30.7 52.3 31.8 52.4 32.15 52.4 32.85 52.35 36.4 52.5 37.8 52.5 40.3 52.65 40.95 52.65 42.45 52.6 43.85 52.55 44.2 52.6
L 44.25 52.6
Q 44.645703125 52.6560546875 45.35 52.75 46.05 52.8 46.65 52.8 47.2 52.8 51.4 52.65 52.35 52.65 56.65 52.6
L 60.05 50.05
Q 60.55 49.7 60.9 49.85 61.05 49.9 61.5 50.3 62 50.65 62.25 50.85 62.45 51.1 63.2 51.75 64.05 52.45 64.2 52.5 64.35 52.55 64.65 52.6 64.95 52.65 65.1 52.65 65.25 52.6 66.7 52.6 68.3 52.6 68.7 52.6
L 74.3 52.45
Q 74.390625 52.45 74.75 52.45 75.58125 52.45 77.85 52.45 78.333203125 52.45 78.75 52.45 81.0953125 52.45 81.35 52.45 83.1 52.2 83.6 52.3 84 52.35 87.4 52.05 87.6 52.05 88.05 52.05 88.4 52.05 88.75 52
M 84.25 50.3
Q 84.65 50.35 85.3 50.5 84.85 50.7 84.1 50.8 83.25 50.8 82.95 50.8 82.15 50.8 81.25 50.75
L 80.45 50.65 81.2 50.45
Q 82.1 50.25 82.95 50.25 83.9 50.25 84.25 50.3
M 90.95 61.15
L 91.05 61.55
Q 91.1 62.05 91.1 62.4 91.05 62.65 91.1 63.45 91.2 64.3 91.15 64.6
L 91.1 67.3
Q 91.05 67.95 91.1 68.95 91.15 69.4 91.1 71.1
L 91.1 76.1
Q 91.1 76.15 91.15 76.85 91.2 77.4 91.15 77.65
L 91.15 78.7
Q 91.15 78.9 91.1 79 91 79.15 90.8 79.05 90.65 78.95 90.3 79 89.85 79 89.75 79
L 86.8 79 86.7 75.05 87.65 74.95
Q 88.65 74.85 89 74.9 89.6 74.95 90.4 74.8
L 90.4 74.35 88.55 74.25
Q 87.2 74.15 85.7 74.15 85.15 74.15 85 74.15 84.7 74.15 84.6 74.2 84.45 74.25 84.35 74.2 84.3 74.15 84.3 73.9 84.3 73.65 84.25 72.3 84.2 70.9 84.15 70.8 84.15 70.7 84.2 70.6 84.25 70.55 84.35 70.55
L 86.95 70.6
Q 87.5 70.65 89.7 70.6
L 90.25 70.6 90.25 70.3
Q 89.3 70.25 89 70.2 88.6 70.15 88.35 70.1 87.85 70 87.7 70
L 87.15 70
Q 86.85 70 86.85 69.7
L 86.95 66.2 90.25 66.05 90.3 65.7
Q 87.7 65.45 86.9 65.5 86.1 65.5 85.6 65.4 85.5 65.35 85.35 65.35
L 85.05 65.4
Q 84.7 65.45 84.05 65.4
L 83.9 65.4
Q 83.85 65.35 84 65.25 84.1 65.2 84.7 64.8 85.35 64.4 85.75 64.25 86.15 64.15 86.7 63.75 87.35 63.35 87.35 63.3 87.4 63.3 88.1 62.8 88.65 62.45 88.85 62.4 89.2 62.3 90.95 61.15
M 82.5 66.2
Q 82.85 66.05 83.25 66.1 83.85 66.2 85.8 66.1 86.15 66.15 86.15 66.45
L 86.2 69.6
Q 86.2 69.95 85.95 69.9 83.9 69.95 83.55 69.9 83.35 69.85 82.6 69.85
L 81.9 69.8
Q 81.9 68.65 81.8 68.15 81.8 68.05 81.9 67.5 81.95 67 81.9 66.9 81.75 66.75 81.8 66.65 81.8 66.6 81.95 66.5 82.15 66.4 82.5 66.2
M 81.2 66.95
L 81.25 67
Q 81.3 67.15 81.3 67.25 81.25 67.45 81.15 68.05 81.1 68.2 81.15 68.4 81.2 68.65 81.2 68.8 81.15 69.1 81.2 69.75
L 78.95 69.9
Q 77.9 69.95 77.5 69.85
L 77.25 69.8
Q 77.1 69.7 76.95 69.75 76.75 69.8 76.4 69.75
L 76.1 69.7 76.55 69.45
Q 77.1 69.15 77.25 69 77.65 68.65 78.45 68.45 78.6 68.4125 78.75 68.3 78.8 68.2875 78.85 68.25 79.15 68.05 79.45 67.9 80.05 67.55 81.2 66.95
M 82.35 70.45
Q 83.2 70.5 83.3 70.55 83.35 70.55 83.5 70.6 83.55 70.6 83.55 70.75 83.55 70.95 83.55 73.25 83.5 73.95 83.55 74 83.55 74.05 83.6 74.2 83.6 74.25 83.5 74.3 83.35 74.3 82.4 74.3 81.3 74.25 81.1 74.25
L 79.3 74.3 79.25 70.5 81.05 70.45
Q 81.55 70.45 82.35 70.45
M 91.25 79.6
Q 91.52734375 79.6 91.75 79.65 92.1294921875 79.7294921875 92.35 79.95 92.4 80.05 92.85 80.7 92.869140625 80.7255859375 92.9 80.75 93.30859375 81.304296875 93.5 81.4 93.7 81.55 93.95 81.95 94.3 82.4 94.35 82.45 94.5 82.65 94.55 82.75 94.55 82.95 94.4 83.1 94.3 83.2 93.95 83.75
L 93.75 84.05 93.35 84.05
Q 92.85 84 91.95 83.9 91.847265625 83.8828125 91.75 83.85 90.99296875 83.738671875 90.55 83.65 90.15 83.55 89 83.4 87.75 83.3 87.35 83.2 85.95 82.95 85.05 82.85 84.5 82.75 83.4 82.9 82.5 83 81.9 83.1 79.4 83.65 78.25 84.05 77.35 84.35 76.05 85.05
L 74.95 85.7
Q 74.8501953125 85.6375 74.75 85.55 73.2470703125 84.665625 71.7 84.15
L 71.7 83.45
Q 71.7759765625 81.4353515625 71.7 80.75 71.7240234375 80.533984375 71.7 80.45 71.65 80.15 71.7 80 71.75 79.8 72 79.8 73.65 79.95 74.25 79.85 74.430078125 79.819921875 74.75 79.8 75.4951171875 79.75 77 79.75 77.5 79.75 79.05 79.75 80.45 79.75 80.9 79.65 81.3 79.55 82.1 79.65 82.95 79.75 83.05 79.75 83.15 79.7 83.35 79.55 83.55 79.4 83.65 79.45 83.9 79.6 84.6 79.6
L 91.25 79.6
M 86.1 76.95
Q 86.1 77.45 86.1 78.95
L 82.5 78.85
Q 82.15 78.85 82.05 78.8 81.85 78.7 81.8 78.45 81.75 76.25 81.8 75.95 81.9 75.65 81.9 75.45
L 81.9 75.1 83.95 75
Q 84.5 75 86 75.1
L 86.1 76.95
M 81 75.15
Q 81 75.3 81.1 76.4
L 81.05 78.55
Q 81.05 78.7 80.95 78.8 80.8 78.9 80.65 78.9 80.15 78.85 79.6 78.95 79.1 79.05 78.95 79.05 77.95 78.95 77.75 79 77.65 79 77.45 78.95 77.25 78.9 77.15 78.9 76.95 78.95 76.9 78.7 76.8 77.4 76.75 77 76.7 76.7 76.7 76.2 76.7 75.7 76.7 75.55 76.7 75.4 76.85 75.25 76.95 75.15 77.1 75.15
L 78.4 75.05
Q 78.65 75.05 80.7 75 81 75 81 75.15
M 85.05 85.4
Q 85.2 85.25 85.15 85.2 85.05 85.15 84.9 85.25 83.9 85.85 82.4 87.4 81.9935546875 87.8470703125 81.65 88.25 81.214453125 88.7896484375 80.9 89.25 80.583203125 89.715234375 80.4 90.1 80.4216796875 89.6890625 80.5 89.25 80.643359375 88.7671875 80.85 88.25 80.9041015625 88.15078125 80.95 88.05 81.5 86.8 82.6 85.55 81.25 86.4 80.1 87.75 79.8826171875 88 79.7 88.25 79.2986328125 88.75 79 89.25 78.773828125 89.65 78.6 90.05 78.5859375 89.69921875 78.7 89.25 78.800390625 88.799609375 79 88.25 79.36484375 87.3951171875 80 86.3 79.1962890625 86.9619140625 78.25 88.25 78.204296875 88.323828125 78.15 88.4 77.8298828125 88.8978515625 77.6 89.25 77.17890625 89.8888671875 77.05 90.05 76.951953125 89.82109375 77.1 89.25 77.1615234375 88.9478515625 77.3 88.55 77.360546875 88.3955078125 77.4 88.25 77.8171875 87.3126953125 78.25 86.75 78.45 86.5 78.3 86.55 78.2 86.55 78 86.7 77.1603515625 87.31875 76.4 88.25 76.2986328125 88.372265625 76.2 88.5 75.9154296875 88.903125 75.7 89.25 75.4576171875 89.6345703125 75.3 89.95 75.2544921875 89.6775390625 75.3 89.25 75.3904296875 88.8265625 75.55 88.25 75.60703125 88.1287109375 75.65 88 75.45078125 88.12265625 75.25 88.25 74.8314453125 88.537890625 74.45 88.85 74.236328125 89.063671875 74.05 89.25 73.8431640625 89.499609375 73.7 89.7 73.7603515625 89.4791015625 73.85 89.25 73.9705078125 88.908984375 74.15 88.55 74.2322265625 88.395703125 74.3 88.25 74.6837890625 87.6869140625 75.2 87.25 76.25 86.4 79.35 85.25 81.2 84.55 82.15 84.55 82.5 84.55 83.25 84.55 83.95 84.45 84.4 84.45 86.2 84.45 86.85 84.6 87.1 84.65 88 84.75 88.75 84.8 89.1 84.95 89.5 85.1 90.15 85.15 90.85 85.25 91 85.25 90.45 85.95 89.35 87.1 88.724609375 87.7734375 88.2 88.25 87.665234375 88.7646484375 87.25 89.05 87.330078125 88.65 87.45 88.25 87.65 87.65 87.95 87.05 88.3 86.35 88.65 85.85 87.5 86.55 86.3 87.9 86.204296875 88.0115234375 86 88.25 85.7263671875 88.607421875 85.2 89.25 85.0046875 89.523828125 84.75 89.85 84.65 90.1 84.55 90.05 84.45 90 84.5 89.75 84.589453125 89.50390625 84.7 89.25 84.9033203125 88.7638671875 85.15 88.25 85.389453125 87.8341796875 85.65 87.4 86.4 86.2 87 85.65 87.3 85.4 87.2 85.35 87.1 85.3 86.8 85.5 84.998828125 86.7306640625 83.7 88.25 83.26875 88.7353515625 82.9 89.25 82.49296875 89.8076171875 82.15 90.4 82.05 90.6 81.95 90.55 81.8 90.55 81.9 90.35 82.110546875 89.7921875 82.35 89.25 82.6185546875 88.743359375 82.9 88.25 83.775390625 86.763671875 85.05 85.4
M 82 92.1
Q 82.2 92.3 82.5 92.75 82.8 93.3 82.8 93.65 82.35 93.2 81.9 92.9 81.75 92.85 81.25 92.6 81.6 93.5 81.55 94.45 81.55 94.75 81.4 94.45 81.2 94 80.85 93.45 80.2 92.45 79.5 92.05 79.8 93 79.85 94 79.85 94.65 79.75 95.1 79.35 93.85 78.35 92.7 77.4 91.65 76.8 91.65 77.15 92.35 77.45 93.3 77.75 94.45 77.65 95.05 76.95 93.65 76.35 92.95 75.75 92.2 75 91.8 74.85 91.75 74.8 91.75 74.65 91.75 74.75 91.9 75.05 92.3 75.35 93.1 75.8 94.3 75.75 95.3 75.75 95.5 75.7 95.5 75.6 95.5 75.55 95.35 74.15 92.7 73.35 92.3 73.75 94.15 73.6 94.7 73.3 94.05 72.9 93.4 72.35 92.65 71.9 92.35 72.25 93.35 72 94.15 71.55 93.4 71.35 93.1 71 92.65 70.8 92.5 70.8 93.1 70.65 93.35 70.6 93.45 70.35 92.8 70.05 91.95 69.95 91.75
L 71.5 91.3
Q 72.15 91.1 73.05 90.9 73.95 90.7 74.3 90.7 74.75 90.65 76.65 90.65 77.25 90.65 78.15 90.75 79 90.85 79.25 90.95 79.3 90.95 80.1 91.15 80.7 91.35 80.9 91.45 81 91.5 81.45 91.75 81.9 92 82 92.1
M 58.35 25.4
Q 58.5 25.5 58.5 25.85
L 58.55 28.8
Q 58.55 28.8908203125 58.55 29 58.5650390625 29.2513671875 58.6 29.6 57.15 29.65 56.7 29.6
L 54.6 29.6
Q 54.6 29.2701171875 54.6 29 54.6 28.4515625 54.6 28.15 54.55 26 54.5 25.65 54.5 25.45 54.6 25.4 54.7 25.35 54.95 25.35
L 57.95 25.3
Q 58.2 25.3 58.35 25.4
M 51.25 25.55
Q 51.45 25.6 51.35 25.9 51.3 26.3 51.3 28.9 51.3 28.953515625 51.3 29 51.2892578125 29.171484375 51.25 29.25 51.15 29.4 50.9 29.45 50.7 29.5 49.55 29.45 48.35 29.4 48.25 29.4 47.7 29.5 47.75 29.2 47.7662109375 29.1185546875 47.75 29 47.8162109375 28.7546875 47.85 28.35 47.85 27.7 47.85 27.4 47.8 27 47.8 25.9 47.8 25.55 48.15 25.5 48.35 25.45 50.75 25.5 51.15 25.45 51.25 25.55
M 50.9 30
Q 51.55 29.95 54.4 30.05 56.3 30.15 58.9 30.05 61.6 30 62.9 30.05 63.65 30.05 67.85 29.9 71.45 29.8 71.85 29.75 72.4 29.7 72.7 29.9 73.05 30.1 72.75 30.4 72.4 30.7 71.95 30.8 71.9 30.8 71.2 30.85 67.8 30.95 67.55 31 67.35 31 67.2 31.3 67.1 31.4 66.9 31.85 66.6 32.4 66.6 32.45 66.45 32.8 66.6 32.8 67.15 32.85 67.25 32.75 67.3 32.7 67.7 32.1 68.1 31.55 68.4 31.4 68.25 32 67.95 32.65
L 68.65 32.6 69 32.05
Q 69.35 31.55 69.6 31.4 69.4 32.1 69.3 32.55
L 69.85 32.5 70.35 32.05
Q 70.9 31.6 71.2 31.45 71.45 31.3 71.1 31.8 70.7 32.45 70.7 32.5
L 70.8 32.75
Q 70.9 32.9 70.75 33.05 70.5 33.25 70.3 33.35 70 33.45 69.55 33.5 66.4 33.5 65.45 33.6 64.85 33.65 63.2 33.6 61.5 33.6 61.1 33.6 59.1 33.6 56.95 33.7 56.2 33.8 52.65 33.6 51.75 33.6 51.55 33.55 51.15 33.55 50.9 33.45
L 50.55 33.3
Q 50.4 33.2 50.35 33.05 50.3 32.95 50.3 32.8 50.3 32.65 50.25 32.55
L 49.65 31.55 50.25 32.05
Q 50.85 32.6 50.95 32.65 51.05 32.65 51.1 32.6 51.1 32.55 51.05 32.4
L 50.7 31.45 51.75 32.5
Q 51.9 32.7 51.95 32.75 52 32.8 52.15 32.8 52.25 32.8 52.35 32.7 52.45 32.65 52.4 32.55
L 52.15 31.65 52.85 32.65
Q 53 32.85 53.25 32.85
L 53.85 32.85
Q 53.4 31.4 53.1 31.25 52.9 31.15 52.65 31.15
L 52.5 31.15
Q 49.55 31.15 49.1 31.05 48.6 30.95 47.85 30.35 47.5 30.05 48.45 30.05 50.25 30.05 50.9 30
M 51.3 36.9
Q 51.3 35.8 51.3 35.55 51.3 35.05 51.3 34.5 51.3 34.15 51.75 34.15 52.05 34.15 53.55 34.3 54.4 34.4 55.65 34.3 55.7 36.1 55.65 36.3 55.65 36.5 55.6 36.55 55.5 36.65 55.3 36.65 55.05 36.65 52 36.9
L 52 37.15 52.65 37.3
Q 53.4 37.4 53.6 37.35 54.05 37.3 54.15 37.8 54.2 38.25 54.15 38.75
L 54.15 39.25
Q 54.15 39.55 54.1 39.65 54 39.9 53.65 39.9
L 51.9 40.1 52 40.55 52.6 40.6
Q 53.25 40.6 53.55 40.6 54.5 40.5 54.85 40.6 55.4 40.65 55.45 40.65 55.55 40.65 55.65 40.75 55.75 40.9 55.75 41.1
L 55.7 42.7
Q 55.7 42.85 55.5 43 55.35 43.15 55.15 43.2 52.65 43.5 52.35 43.45
L 51.75 43.4 51.75 43.75 53.15 43.8
Q 53.4 43.8 54.2 43.9 54.35 45.6 54.25 45.85 54.1 46.15 54.05 46.25 53.9 46.5 53.55 46.5
L 51.2 46.55
Q 51.15 46.5 51.15 46.4 51.25 43.7 51.25 43.2 51.244140625 43.0958984375 51.25 43 51.2 42.265234375 51.2 42
L 51.2 40.6
Q 51.15 40.55 51.25 40.15 51.3 39.7 51.25 39.55 51.25 39.35 51.25 38.85 51.3 38.35 51.3 38.1 51.3 37.95 51.3 36.9
M 57.75 34.3
Q 58.2 34.4 58 34.75 57.95 34.85 57.9 35.8 57.9 36.25 57.9 36.7 58 36.15 58.2 35.55 58.6 34.4 59.2 34.15 59.85 33.95 60.5 33.95 61.05 33.9 61.35 34.05 61.6 34.2 61.9 34.6 62.2 34.95 62.25 35.35 62.35 35.9 62.55 37 62.7 36.35 62.7 36.1 62.7 34.85 62.65 34.65 62.6 34.5 62.7 34.45 62.8 34.4 62.95 34.4
L 63.75 34.35
Q 64.2 34.35 64.2 34.8 64.2 34.95 64.2 35.65 64.25 36.25 64.2 36.4 64.1 36.6 63.45 36.9
L 64.7 37.15
Q 64.85 37.2 65.35 37.3 65.8 37.5 65.8 38 65.8 38.45 65.8 38.95 65.8 39.3 65.85 39.4 65.95 39.6 65.9 39.8 65.85 40.1 65.5 40.15
L 62.9 40.3 63.45 40.45
Q 64 40.55 64.05 40.7 64.15 40.9 64.1 42.1 64.069921875 42.7302734375 64.05 43
L 64.05 43.2
Q 63.95 43.45 63.6 43.5
L 62.4 43.8 63.2 43.9
Q 64.05 44 64.4 44
L 65.3 44
Q 65.45 44 65.6 44.15 65.75 44.25 65.8 44.45 65.85 45.05 65.85 45.8 65.85 46.15 65.45 46.25 65.2 46.3 61.45 46.65
L 63.8 47.05 63.8 47.25 61.9 47.5
Q 61.65 47.5 61.25 47.65
L 60.9 47.7 61.5 47.8
Q 62.2 47.9 62.45 47.9 62.85 47.9 63.65 47.95
L 63.6 48.45
Q 61.4 48.75 60.6 48.7
L 57.4 48.55 57.3 48.1 58.4 47.95
Q 58.85 47.9 59.7 47.7 57.85 47.45 57.35 47.45 57 47.45 56.95 47.3 56.95 47.15 57.2 47.1 57.5 47.05 59.4 46.7 57.95 46.5 57.35 46.5 55.55 46.35 55.5 46.35 54.9 46.25 54.95 45.8 55 45.5 55.05 45.3 55.05 44.95 55.05 44.75 55 44.5 55.15 44.3 55.3 44.05 55.5 44 56.05 43.8 57.3 43.7 57.7 43.7 58 43.6 57.1 43.35 56.75 43.25 56.5607421875 43.1689453125 56.45 43 56.4 42.856640625 56.4 42.65 56.35 42.15 56.35 41.7 56.35 40.9 56.45 40.75 56.55 40.65 56.85 40.5 57.2 40.35 57.6 40.3 57.05 40 55.7 40.1 55.3 40.1 55.1 40 54.9 39.95 54.85 39.75 54.8 39.55 54.8 38.75 54.8 37.9 54.85 37.7 54.95 37.5 55.2 37.4 55.45 37.35 55.95 37.3 56.55 37.2 57.15 37 56.7 36.85 56.5 36.75 56.25 36.6 56.25 35.85 56.25 35.1 56.25 34.9 56.25 34.65 56.45 34.5 56.6 34.35 56.8 34.3 57.5 34.2 57.75 34.3
M 43.75 32.2
Q 44.1 32.2 44.25 32.25 44.5 32.35 44.5 32.65
L 44.45 34.85
Q 44.45 35.05 44.35 35.2 44.3064453125 35.27265625 44.25 35.3 44.112890625 35.435546875 43.9 35.4 43.05 35.35 41.6 35.35 41.3 35.35 41.3 35.05 41.4 33.25 41.35 32.95 41.25 32.35 41.75 32.25 42.6 32.2 43.75 32.2
M 43.55 36.05
Q 43.9216796875 36.003515625 44.25 36.05 44.2751953125 36.09296875 44.3 36.1 44.65 36.2 44.55 36.35 44.409375 36.5611328125 44.25 36.7 43.956640625 36.95 43.6 36.95 40.5 37 39.55 37 35.25 36.85 34.2 36.85 32.6 36.9 31.85 36.85 31.3 36.85 30.7 36.45 30.5 36.35 30.55 36.15 30.6 35.95 30.9 36 31.15 36.05 32.15 36.1 33.1 36.1 33.65 36.1 33.85 36.1 35 36.05 35.9 36 36.25 36.05 38.7 36.2 39.2 36.1 39.5 36.05 41.4 36.2 42.05 36.25 43.55 36.05
M 43.05 37.9
Q 43.25 37.9 43.35 37.95 43.45 38.1 43.4 38.45 43.3 38.95 43.4 42.45 43.4 42.6701171875 43.4 43 43.4 43.8689453125 43.4 45.5 43.4 45.75 43.4 45.8 43.35 45.9 43 45.85 42.75 45.8 40.8 45.95 38.75 46.15 38.3 46.15
L 36.35 46.15 36.95 46.35
Q 37.65 46.55 37.85 46.55 38.85 46.65 39.4 46.75 39.65 46.8 39.75 47.2 39.9 47.5 39.5 47.5 37.1 47.45 36.8 47.4 36.15 47.3 35.85 47.35 35.55 47.4 35.45 46.6 35.4 46.3 35.4 46.2 35.3 46 35.1 45.95 34.9 45.85 33.6 45.8 32.5 45.7 32.2 45.7 31.9 45.7 31.85 45.4 31.8 45.25 31.9 44.15 31.9341796875 43.365625 31.9 43 31.9158203125 42.8294921875 31.9 42.75 31.9 42.35 31.9 41.6 31.9 40.75 31.95 40.55 32 40.3 32 39.7 31.95 39.1 31.95 38.9
L 31.95 37.85 32.55 37.9
Q 33.25 38 33.55 38 34.05 38 34.75 37.9 35 37.9 35.1 37.95 35.2 38.05 35.05 38.2 34.85 38.5 34.7 39.1 34.5 39.8 34.55 40.45 34.7 39.65 35 39.05 35.3 38.5 35.6 38.25 36.55 37.6 37.45 37.65 38.05 37.7 38.4 37.85 38.95 38.05 39.3 38.55 39.7 39.1 39.8 39.55 39.9 39.85 39.9 40.5 40.1 39.95 40.1 39.3 40.1 38.6 39.85 38.15 39.65 37.75 40.1 37.8 40.35 37.85 41.1 37.9 41.8 37.9 42.15 37.85 42.6 37.75 43.05 37.9
M 40.65 46.75
Q 40.6 46.6 40.7 46.5 40.75 46.5 40.9 46.45 41.05 46.45 41.8 46.45 42.6 46.45 43 46.5 43.45 46.55 44.25 46.55 45.05 46.6 45.25 46.55 45.7 46.5 45.65 46.9
L 45.65 51.7
Q 45.65 51.95 45.6 52 45.55 52.15 45.25 52.15 44.70546875 52.15 44.25 52.15 43.86875 52.15 43.55 52.15 42.1 52.15 41.7 52.1
L 40.55 52 40.65 46.75
M 51.2 49.35
Q 51.15 47.55 51.1 47.35 51.05 47.2 51.15 47.1 51.2 47.05 51.4 47.05 51.5 47 52.35 47.05 53.3 47.05 53.75 47.05
L 55.65 46.85
Q 56.3 46.8 56.3 47.2 56.3 47.55 56.25 49.3
L 56.25 51.3
Q 56.25 51.7 55.9 51.7 52 51.7 51.75 51.75 51.25 51.8 51.15 51.4 51.15 51.25 51.15 50.5 51.2 49.7 51.2 49.35
M 58.15 49.4
L 57.45 49.3 58.4 49.1
Q 59.5 48.9 60.1 48.9 61.1 48.9 63.55 49.15 62.7 49.35 61.95 49.45 61.45 49.55 59.4 49.55 58.95 49.55 58.15 49.4
M 72.45 25.15
Q 72.8 25.1 72.9 25.15 73.05 25.2 73.05 25.55 73.05 25.75 73 27.25 73 28.6 72.95 28.7 72.95 28.75 72.95 28.95 72.9408203125 28.9775390625 72.9 29 72.8541015625 29.1 72.65 29.1 69.85 29.25 69.6 29.25 69.2818359375 29.25 69.2 29 69.15 28.896484375 69.15 28.75
L 69.25 25.2 72.45 25.15
M 75.85 35.05
L 75.9 33.85
Q 75.9 33.35 75.9 33.05 75.9 32.4 75.9 32.25 75.8 31.9 76.15 31.9 76.4 31.9 78.15 31.85 78.4 31.9 78.4 32.2
L 78.45 34.5
Q 78.45 34.85 78.15 34.85
L 75.85 35.05
M 66.4 29
Q 66.4 29.35 66.15 29.35
L 62.3 29.5
Q 62.15 29.45 62.1 29.25 62.0904296875 29.1359375 62.05 29 62.0689453125 28.4216796875 62.15 27.45 62.25 26.05 62.2 25.75 62.15 25.6 62.2 25.55 62.25 25.5 62.55 25.45 63 25.45 65.8 25.45 66.05 25.45 66.15 25.45 66.25 25.55 66.25 25.75
L 66.4 29
M 65.1 36.7
Q 64.75 36.7 64.65 36.6 64.55 36.5 64.55 36.1
L 64.65 34.2 68.95 34.05
Q 69.3 34.05 69.4 34.15 69.45 34.3 69.45 34.6 69.4 34.95 69.4 38.4 69.4 39.14375 69.4 43 69.4 43.291015625 69.4 43.6
L 69.35 45.75
Q 69.35 46.25 68.95 46.2 68.75 46.15 68.05 46.15 67.3 46.2 67.15 46.2 66.7 46.2 66.65 45.7 66.6 45.3 66.7 44.35 66.7 43.95 67.3 43.9 67.8 43.8 68 43.75 68.2 43.7 68.6 43.7
L 68.6 43.35 64.8 43.25 64.75 40.8
Q 64.75 40.6 65.1 40.55 65.15 40.55 65.6 40.45
L 68.75 40.35 68.7 40.05
Q 67.35 40.05 67 40 66.75 40 66.65 39.95 66.6 39.9 66.55 39.7 66.45 39.45 66.4 38.65 66.35 37.7 66.45 37.55 66.8 37.2 67.4 37.15
L 68.7 37.05 68.7 36.75
Q 68 36.65 67.3 36.75 66.8 36.85 66.05 36.75 65.15 36.7 65.1 36.7
M 64.5 49.05
Q 64.5 47.65 64.45 47.25 64.4 46.95 64.55 46.85 64.65 46.75 65 46.75 65.1 46.75 67.05 46.7 68.6 46.65 68.85 46.7 69.15 46.75 69.2 46.8 69.35 46.9 69.35 47.15
L 69.3 51.7
Q 69.25 51.9 68.95 51.75 68.8 51.7 68.4 51.75
L 65.05 51.8
Q 64.7 51.8 64.6 51.75 64.4 51.7 64.4 51.55 64.4 51.4 64.45 50.4 64.5 49.35 64.5 49.05
M 75.45 47.2
Q 75.4 46.75 75.7 46.75 75.95 46.65 77.3 46.55 78.306640625 46.4828125 78.75 46.45 78.9677734375 46.48359375 79.05 46.5 79.25 46.6 79.6 46.6 79.85 46.7 79.85 47.05 79.85 47.5 79.8 49.15 79.75 50.85 79.75 51.1 79.7 51.4 79.65 51.5 79.55 51.6 79.15 51.6 79.0140625 51.5806640625 78.75 51.55 78.3341796875 51.5693359375 77.6 51.6 76.2 51.65 76.15 51.65 75.75 51.65 75.6 51.6 75.4 51.55 75.35 51.4 75.45 47.4 75.45 47.2
M 30.95 32.4
Q 31.05 32.25 31.2 32.25 31.4 32.25 32.75 32.3 33.3 32.25 33.2 32.75 33.2 33.1 33.2 34.85 33.2 35.05 33.1 35.1 33 35.2 32.7 35.15 32.4 35.1 31.35 35.1 31.1 35.1 31 35.05 30.85 34.95 30.85 34.75 30.8 34.6 30.85 33.75 30.9 32.85 30.9 32.7 30.85 32.5 30.95 32.4
M 38.85 32.45
Q 39.35 32.45 39.3 32.85 39.3 33.3 39.15 34.9 39.15 35 39.15 35.2 39.15 35.35 38.95 35.35 38.8 35.35 37.6 35.35 36.35 35.35 36.15 35.35 35.85 35.35 35.75 35.3 35.65 35.2 35.65 35 35.7 33.05 35.7 32.8 35.65 32.6 35.75 32.55 35.85 32.5 36.05 32.45
L 38.85 32.45
M 29.65 48.5
Q 29.65 48.25 29.7 46.3
L 33.3 46.55
Q 33.55 46.6 33.6 46.6 33.75 46.7 33.75 46.9 33.75 47.1 33.8 47.9 33.8 48.65 33.75 48.9 33.75 49.1 33.8 49.8 33.9 50.45 33.85 50.6 33.75 51.1 33.75 51.4 33.8 51.5 33.85 51.7 33.85 51.85 33.55 51.85 33.45 51.85 31.8 51.75 30.3 51.7 30.1 51.65 29.85 51.55 29.75 51.4 29.7 51.3 29.65 51.1 29.65 50.95 29.6 49.85 29.6 48.7 29.65 48.5
M 36.4 47.85
Q 37.2 48 37.5 48 37.95 48.05 39.85 47.95 39.95 48.6 39.75 48.7 39.6 48.75 39.15 48.75 38.65 48.7 38.4 48.7 38.15 48.7 37.45 48.6 36.65 48.5 36.55 48.5 36.3 48.45 36 48.4
L 35.75 48.3 35.7 47.7 36.4 47.85
M 39.25 49.35
Q 39.5 49.3 39.6 49.45 39.75 49.65 39.4 49.95 39.35 50.05 38.85 50 38.3 49.95 38.15 49.95 37.85 49.95 36.95 49.9 35.95 49.9 35.85 49.85 35.75 49.85 35.7 49.75
L 35.7 49.25
Q 39 49.4 39.25 49.35
M 39.65 50.85
Q 39.4 51.1 38.3 51.1
L 35.65 50.9 35.65 50.65 36.35 50.65
Q 37.2 50.7 37.8 50.8 38.7 50.95 39.65 50.85
M 30.4 57.75
Q 30.45 58.4 30.45 58.6 30.4 58.75 30.5 58.85 30.65 58.95 30.75 58.9
L 33.05 59 33.15 60.25
Q 33.15 60.65 33.15 60.7 33.25 60.8 33.65 60.7 33.95 60.7 34.65 60.7 35.4 60.75 35.45 60.7 35.85 60.65 35.85 60.95 35.85 61.75 35.9 61.95 35.9 62.2 35.95 62.2 36 62.3 36.15 62.3
L 38.4 62.35 38.45 63.55
Q 38.5 63.75 38.55 63.85 38.7 64.05 39.05 64.05
L 40.85 64
Q 41.15 64 41.2 64.3
L 41.2 65.4
Q 41.25 65.65 41.6 65.65 42.05 65.6 43.3 65.6 43.5 65.6 43.65 65.65 43.8 65.75 43.8 65.9 43.75 66.25 43.8 66.65 43.8470703125 67.121484375 44.25 67.1
L 44.3 67.1
Q 44.45 67.05 45.1 67.1 45.9 67.15 46 67.15 46.3 67.15 46.4 67.3 46.5 67.45 46.5 67.65 46.45 67.95 46.65 68.85
L 48.3 68.9
Q 48.6 68.9 48.65 68.95 48.670703125 68.970703125 48.7 69 48.7603515625 69.1119140625 48.8 69.35 48.9 69.75 48.9 70.9 47.25 69.95 46.85 69.7 46.1435546875 69.2986328125 45.6 69 44.5884765625 68.4158203125 44.25 68.2 44.2228515625 68.2126953125 44.2 68.2 42 66.75 41.6 66.55
L 40.4 65.95
Q 40.2 65.75 40 65.65 39.9 65.6 39.75 65.55 39.6 65.55 39.5 65.5
L 39.35 65.4
Q 38.75 64.85 38.6 64.8 38.4 64.75 37.75 64.4 37.05 64.05 36.9 64 36.7 63.9 36.1 63.5
L 35.55 63.1
Q 35.4 63.1 35.25 63 34.7 62.6 34.4 62.45 34.15 62.35 33.45 61.95 32.8 61.55 32.65 61.4 32.35 61.2 31.9 60.85 31.3 60.45 30.95 60.4 30.65 60.3 30.5 60.1 30.35 59.85 30.3 59.8 29.6 59.4 29.1 59 29 58.9 28.95 58.85 28.95 58.8 29.05 58.7
L 30.35 57.15 30.4 57.75
M 30.3 73
Q 30.2 70.75 30.2 70.4 30.15 70.15 30.2 69.4 30.25 68.5 30.25 68.4 30.25 67.6 30.25 67 30.25 65.9 30.2 65.7
L 30.2 65.4
Q 30.15 64.65 30.25 63.8 30.3 63.55 30.25 62.2
L 30.25 60.85 31.95 61.8
Q 32.85 62.2 33.45 62.7 33.75 62.9 35.25 63.8 35.4 63.9 35.85 64.05 36.25 64.2 36.4 64.35 37.15 65 37.5 65.05 37.6 65.1 38.05 65.4 36.6 65.4 36.1 65.45
L 31.1 65.65
Q 30.95 65.65 30.9 65.7 30.85 65.7 30.85 65.85 30.85 66 30.9 66 30.95 66.05 31.1 66.05 31.4 66.1 32.05 66.1 32.85 66.15 33.15 66.15 33.55 66.1 34.35 66.2
L 34.5 69.65
Q 34.5 69.85 34.5 69.9 34.45 70 34.3 70 31.3 70.15 31.1 70.2 31 70.2 30.95 70.35 30.95 70.45 31 70.55 31.05 70.75 32 70.65
L 34.45 70.65
Q 36.15 70.65 36.5 70.55 37.15 70.4 37.1 70.8 37.1 71 37.1 72.3 37.1 73.65 37.05 73.75 37.05 73.9 37.1 74.1 37.05 74.3 36.8 74.25 36.5 74.2 35.8 74.15 35 74.05 34.75 74.1 32.7 74.35 32.25 74.35 31.35 74.35 31.2 74.4 31.05 74.45 31.1 74.55 31.1 74.7 31.25 74.7 32.05 74.8 32.1 74.8 32.3 74.85 32.95 74.85 33.6 74.9 33.85 74.9 34.15 74.85 34.6 74.95
L 34.55 78.75
Q 34.55 79.05 34.3 79.05
L 30.65 79.15
Q 30.4 79.15 30.3 79.1 30.25 79.1 30.2 78.95 30.2 78.8 30.2 77.6 30.2 76.45 30.25 76.15 30.3 75.9 30.3 74.65 30.3 73.45 30.3 73
M 40.3 66.95
Q 40.25 66.7 40.45 66.75 40.6 66.8 41.6 67.35 41.85 67.5 42 67.7 42.05 67.75 42.25 67.75 42.4 67.8 42.45 67.9 42.55 68 42.95 68.25 43.3 68.5 43.5 68.6 45.15 69.5 45.25 69.6 45.4 69.7 45.45 69.8 45.5 69.85 45.25 69.85 44.85 69.8 44.15 69.8 43.35 69.75 43.1 69.8 42.75 69.85 42.15 69.85 41.45 69.9 41.2 69.85 40.95 69.75 40.55 69.8
L 40.2 69.8
Q 40.2 68.95 40.25 68.5 40.3 68.2 40.3 67.6 40.3 67.15 40.3 66.95
M 39.2 66.15
Q 39.5 66.15 39.45 66.4 39.45 66.45 39.5 67.55 39.55 68.7 39.5 68.85
L 39.45 69.8 37.25 69.95
Q 37 70 36.25 69.95 35.45 69.9 35.35 69.9 35.15 69.9 35.15 69.7
L 35.2 66.5
Q 35.2 66.3 35.25 66.25 35.25 66.15 35.4 66.15 35.7 66.1 39.2 66.15
M 37.75 74.05
Q 37.75 72.25 37.75 71.9
L 37.8 70.6 39.55 70.5
Q 40.3 70.5 42.05 70.55
L 42.1 74.3
Q 41.3 74.25 40.7 74.3 40.35 74.35 39.2 74.3 38.1 74.3 38.05 74.3 37.75 74.35 37.75 74.05
M 39.4 75.1
Q 39.45 75.15 39.45 75.3 39.55 78.3 39.5 78.5 39.35 78.85 39.35 78.9 39.35 79.05 39.2 79.05
L 37.6 79
Q 37.45 79 37.3 79.05 37.15 79.15 37.1 79.15 36.85 79.05 36.7 79.05
L 35.25 79.05
Q 35.25 78.55 35.2 77.95 35.2 76.85 35.25 76.75 35.25 76.6 35.3 76 35.3 75.4 35.3 75.25 35.3 75.15 35.3 75.1 35.3 75.05 35.4 75.05 35.5 75.05 36.3 75 37.15 74.95 37.45 74.95 37.7 75 38.4 75.05 39 75.1 39.1 75.1 39.3 75.05 39.4 75.1
M 40.3 76.8
Q 40.25 75.9 40.35 75.7 40.35 75.55 40.35 75.15 40.3 75.1 40.35 75.05 40.4 75.05 40.5 75.05 40.65 75 41.15 75.05 41.65 75.05 41.7 75.1 41.8 75.15 42 75.05 42.1 75 42.6 75.05 43.1 75.05 43.35 75.1 43.45 75.1 43.8 75.1 44.05 75.1 44.1 75.15 44.1 75.2 44.25 75.2 44.35 75.15 44.4 75.2
L 44.55 75.35
Q 44.65 75.45 44.65 75.6 44.65 75.7 44.6 76.45 44.6 77.25 44.55 77.4 44.45 77.7 44.4 79 43.5 79.15 42.95 79.15 42.35 79.05 42 79.05 40.9 79.05 40.7 79.1 40.2 79.15 40.3 78.85 40.3 78.65 40.3 77.85 40.3 77.05 40.3 76.8
M 35.9 80
Q 36.4 79.95 37.9 80.05 39.35 80.1 39.75 80.2 40.2 80.25 41.15 80.3 42.2 80.35 42.75 80.25 43.3 80.2 44.4 80.2 45.3 80.2 46 80.2
L 48.3 80.3
Q 49.05 80.3 49.05 80.8 49.05 80.95 49.1 82.05 49.1 83.15 49.1 83.75
L 49.05 84.1
Q 48.95 84.75 49.05 85.2
L 48.35 85.45
Q 48 85.2 47.4 85 46.6 84.7 45 84.45 43.25 84.1 40.55 83.8 39.75 83.7 36.8 83.85 33.6 84.05 32.8 84.1 31.5267578125 84.1439453125 28.75 84.5 28.364453125 84.5451171875 27.95 84.6
L 27.05 83.35
Q 26.9 83.05 26.85 82.95 26.8 82.75 26.95 82.65 27 82.6 27.7 81.85 28.35 81.15 28.55 80.95 28.65 80.8833984375 28.75 80.8 29.25 80.4666015625 29.75 80.05 29.95 79.9 30.6 79.9 30.8 79.9 33 79.85 33.6 79.85 34.65 79.95 35.6 80.05 35.9 80
M 31.4 86.35
L 31.35 85.85 32.45 85.6
Q 33.75 85.35 34.45 85.35 35 85.35 36.3 85.25 37.5 85.15 37.85 85.2 38.25 85.2 39.2 85.3 40.1 85.35 40.35 85.35 40.8 85.3 41.35 85.3 41.95 85.25 42.25 85.35 44.55 85.8 45.05 86 45.3 86.1 46.45 86.4
L 45.25 87.5
Q 45.2041015625 87.37734375 45.15 87.25 45.1 86.962109375 45.1 86.65 44.914453125 86.7984375 44.6 87.25 44.516015625 87.406640625 44.4 87.6 43.95 88.35 43.9 88.7 43.7109375 88.246484375 43.7 87.25 43.7255859375 86.9283203125 43.75 86.55 43.5626953125 86.7640625 43.3 87.25 43.132421875 87.672265625 42.9 88.3 42.7349609375 88.7953125 42.6 89.25 42.358203125 90.03515625 42.2 90.7 42.1017578125 90.0521484375 42.05 89.25 42.0412109375 88.3478515625 42.1 87.25 42.116796875 86.8388671875 42.15 86.4 41.871875 86.7013671875 41.6 87.25 41.294921875 87.8845703125 41 88.85 40.9400390625 89.0400390625 40.85 89.25 40.619921875 90.0900390625 40.3 91.25 40.1572265625 90.4287109375 40.2 89.25 40.2427734375 88.7787109375 40.3 88.25 40.3419921875 87.683984375 40.4 87.25 40.4837890625 86.6484375 40.6 86.3 40.75 85.75 40.3 86.25 40.076953125 86.53671875 39.8 87.25 39.6314453125 87.655859375 39.45 88.2 39.276171875 88.7375 39.15 89.25 38.8525390625 90.3583984375 38.75 91.35 38.5923828125 90.71953125 38.65 89.25 38.6681640625 88.85546875 38.7 88.4 38.733203125 87.7533203125 38.75 87.25 38.86640625 86.234375 39 85.8 38.58203125 86.38515625 38.2 87.25 37.915625 87.93671875 37.65 88.8 37.569140625 89.0341796875 37.5 89.25 37.1337890625 90.37109375 37.05 91 36.890625 90.68125 36.9 89.25 36.9296875 88.886328125 36.95 88.45 36.9658203125 87.7666015625 37 87.25 37.063671875 86.141015625 37.2 85.8 36.7419921875 86.09140625 36.25 87.25 36.1919921875 87.482421875 36.1 87.75 35.819921875 88.56484375 35.7 89.25 35.575390625 89.9103515625 35.6 90.45 35.415234375 90.0494140625 35.3 89.25 35.269140625 88.7525390625 35.25 88.1 35.25 87.6369140625 35.25 87.25 35.2947265625 86.3408203125 35.4 85.85 35.0826171875 86.3033203125 34.65 87.25 34.5966796875 87.3474609375 34.55 87.45 34.1939453125 88.429296875 34 89.25 33.971875 89.3513671875 33.95 89.45 33.9359375 89.3513671875 33.9 89.25 33.8150390625 88.35625 33.85 87.25 33.8537109375 86.7013671875 33.9 86.1 33.6 86.3 33.15 87.2 33.1380859375 87.2251953125 33.1 87.25 32.7484375 88.0662109375 32.7 88.6 32.446875 87.925 32.4 87.25 32.3625 86.725 32.45 86.2 32.0884765625 86.5615234375 31.85 87.25 31.8240234375 87.3232421875 31.8 87.4 31.759375 87.326953125 31.7 87.25 31.5255859375 86.852734375 31.4 86.35
M 39.25 94.4
Q 38.9 94.55 38.95 94.5
L 39.15 94.3
Q 40.2 93.3 40.95 92.8 40.4 92.9 39.1 93.3 37.95 93.7 37.65 93.65 38.25 93.25 39.45 92.7 40.75 92.15 41.65 92 45.9 91.2 48.15 91.55 49.5 91.75 50.95 92.15 52.25 92.5 53.1 92.85 53.75 93.1 55.15 93.85 56.1 94.4 56.8 94.85 57.3 95.15 58.4 96.2 59.65 97.4 60 97.95 60.55 98.8 61 99.7
L 59.65 100.6
Q 59.7 100.15 59.75 99.85 59.85 99.6 60.1 99.05 59.75 99.15 59.1 99.75 59.05 99.85 58.35 100.6 58.35 99.95 58.65 99.05 58.95 98.3 59.15 98 58.65 98.3 57.75 99.25 56.9 100.1 56.7 100.4 56.85 99.5 57.25 98.5 57.7 97.6 58.15 97.1 58.3 96.95 58.25 96.9 58.2 96.85 58.05 96.95 57.3 97.4 56.25 98.65 55.35 99.65 55.2 100 55.1 100.2 55.05 100.1 55 100.05 55 99.85 55.05 98.95 55.65 97.75 56.15 96.65 56.8 95.85 56.2 96.1 54.75 97.7 53.55 99 53.25 99.5 53.15 98.65 53.95 97.1 54.6 95.75 55.2 95.1 54.6 95.2 53.1 96.85 51.75 98.25 51.45 98.8 51.45 97.9 52.05 96.7 52.75 95.2 53.9 94.35 53.2 94.5 51.65 95.95 50.15 97.35 49.45 98.55 49.7 96.95 50.9 95.25 51.7 94.1 52.1 93.85 52.2 93.8 52.15 93.75 52.1 93.7 52 93.75 50.9 94.3 49.55 95.65 48.3 96.85 47.9 97.6 48.15 95.95 49.2 94.55 49.35 94.35 50.6 93.1 49.8 93.3 48.1 94.7 46.35 96.1 45.8 97 46.05 95.85 46.95 94.6 47.7 93.6 48.65 92.95 47.3 93.35 45.6 94.75 44.4 95.75 44.05 96.3 43.9 96.5 43.85 96.5 43.8 96.5 43.95 96.2 44.3 95.45 44.85 94.7 45.8 93.45 46.85 92.7 45.75 93.05 44.05 94.35 42.7 95.35 42.4 95.7 42.3 95.85 42.2 95.85 42.1 95.9 42.2 95.7 42.6 94.85 42.75 94.7 43.45 93.7 44.85 92.85 43.65 93.2 40.35 95.3 40.65 94.55 41.2 94 41.55 93.6 42.4 92.9 41.65 93.05 40.6 93.65 40 93.95 39.25 94.4
M 63.05 55.45
Q 62.7 55.2 62.55 55.05 62.5 54.95 62.1 54.7 61.8 54.5 61.7 54.35 61.6 54.15 61.35 53.95 61.05 53.65 61 53.6 60.9 53.45 60.65 53.45 60.45 53.5 60.2 53.7 60 53.95 59.05 54.55 58.9 54.7 58.1 55.45 57.3 56.2 56.95 56.6 56.05 57.6 54.95 58.7 54.5 59.2 54 59.85 53.4 61.05 53.15 61.3 53.05 61.45 52.3 63.05 52.15 63.3 51.95 64.05 51.7 64.85 51.55 65.4
L 51.45 65.85
Q 51.45 66.3 51.3 67.1 50.95 67.1 50.7 67.1
L 50.15 67.15
Q 50.2 66.3 50.3 65.4 50.4 64.45 50.6 63.95 51.3 62.3 51.3 62.2 51.3 62.1 51.45 61.95 51.55 61.9 51.6 61.85
L 51.7 61.65
Q 51.85 61.3 52 60.95 52.35 60.2 52.5 60.1 52.85 59.85 53.15 59.2 53.5 58.45 53.6 58.35 53.7 58.2 55.15 56.75 56.55 55.35 56.65 55.15 56.9 54.85 58.35 53.7 59.9 52.55 59.95 52.5 60.6 51.85 60.95 52.2
L 62.7 53.7
Q 64.65 55.55 65.2 56.35 65.5 56.75 65.9 57.05 66.3 57.3 66.35 57.35 66.4 57.5 66.65 58.05 66.9 58.6 67.15 58.8 67.4 59 67.55 59.35 67.75 59.85 67.8 59.95 67.9 60.15 68.45 61 68.95 61.9 69.1 62.3 69.15 62.5 69.45 62.9 69.75 63.3 69.8 63.55 69.9 63.95 70.4 65.4
L 70.6 65.85
Q 70.7 66.1 70.7 66.75 70.1 66.65 69.95 66.65 69.75 66.65 69.7 66.55 69.6 66.45 69.6 66.1
L 68.85 64
Q 68.2 62.4 67.9 62.05 67.75 61.9 67.45 61.3 67.1 60.65 67.05 60.55 67.05 60.5 66.8 60.05 66.65 59.65 66.45 59.55 66.3 59.4 65.65 58.45 65.45 58.15 65.35 58 65.1 57.7 64.85 57.65 64.7 57.6 64.55 57.4 64.35 57.05 64.25 57 64.15 56.9 63.9 56.45 63.65 56 63.55 55.9 63.45 55.75 63.05 55.45
M 63.9 58.25
Q 64.4 58.65 64.4 58.75 64.45 58.9 64.5 58.9 64.8 59.2 65.5 60.3 65.7 60.6 66.1 61 66.55 61.45 66.65 61.6 67.85 63.3 68.05 63.8 68.2 64.3 68.7 65.4
L 68.7 65.45
Q 68.8 65.65 69.1 66.15 69.3 66.6 69.2 66.75
L 68.75 67.45
Q 68.55 67.25 68.25 67.05 67.65 66.75 67.2 66.85 67.95 67.25 68.25 67.85 68.45 68.2 68.6 68.8 68.6455078125 68.90234375 68.65 69 69 69.7625 69 70.25 69 70.45 69.15 70.95 69.3 71.45 69.3 71.55 69.3 71.75 69.1 73.9 69.1 74.15 69.15 74.65 69.2 75.1 69.2 75.3 69.15 75.5 69.1 76.4 69.1 77.4 69.05 77.65 69 77.9 69.05 79.3 69.05 80.34609375 69 80.75 69.0126953125 80.88671875 69 80.95 68.95 81.8 69 83.75
L 68.15 83.7
Q 68.15 82.85 68.15 81.15 68.15546875 80.9408203125 68.15 80.75 68.20546875 79.205859375 68.25 78.85 68.25 78.5 68.25 76.75 68.25 74.95 68.25 74.6 68.15 72.8 68.2 71.95 68.25 70.7 67.9 69.35 67.8474609375 69.175 67.75 69 67.575 68.675 67.25 68.35 67.1 68.2 66.35 67.55 66 67.25 65.6 67.15
L 65.3 67.05
Q 65.15 66.5 65.1 65.95 65.05 65.5 64.65 64.6 64.2 63.7 63.75 63.2 62.85 62.2 60.75 62.2 60 62.2 59.5 62.35 59.15 62.45 58.65 62.7 58.2 62.9 57.7 63.5 57.2 64 56.9 64.5 56.7 64.9 56.5 65.55 56.3 66.15 56.3 66.4 56.3 66.6 56.3 66.7 56.25 66.8 56.05 66.85 55.7 67 55.45 67.15 55.05 67.35 54.7 67.55 54.3 67.85 53.8 68.55 53.6287109375 68.7896484375 53.5 69 53.2486328125 69.4041015625 53.15 69.7 53 70.15 52.9 71.05 52.75 72 52.8 72.35 52.9 72.7 52.95 74.1 53 75.5 52.95 76.3
L 52.9 79.7
Q 52.9 81.95 52.85 82.45 52.8 82.9 52.75 84.3
L 51.9 84.45 51.9 82.85
Q 51.9 82.5 51.9 80.45 51.9 78.4 51.95 78.1 52 77.85 52 76.5 52 75.1 51.95 74.85 51.95 74.75 52 74.1 52.05 73.5 51.95 73.25 51.9 73.05 52 72.85 52.1 72.6 52.1 72.5 52.15 71.95 52 70.9 51.9076171875 70.4841796875 52.4 69 52.4544921875 68.8787109375 52.5 68.75 52.8 68 53.55 67.3 53.9 66.95 54.25 66.75 53.5 66.85 52.95 67.25
L 52.3 67.7
Q 52.05 67.25 51.85 67.1 51.65 66.85 51.75 66.55 51.9 65.95 52.05 65.4 52.5 64 52.65 63.8 53.1 63.2 53.55 62.3 53.75 61.85 54.3 61.3 54.35 61.25 54.75 60.75 55.1 60.25 55.25 60.05 55.5 59.8 57.2 57.9
L 57.2 58.6
Q 57.3 59.25 57.95 59.3 57.75 58.7 58 58 58.35 57.15 59.1 57.15 58.95 56.45 59.55 56 60 55.65 60.6 55.65 61.25 55.65 61.6 55.85 62.15 56.2 62.15 57.1 62.9 57.2 63.2 57.85 63.5 58.5 63.25 59.3 63.75 59.2 63.9 58.25
M 69.65 67.45
Q 69.85 67.35 70.3 67.3 70.7 67.25 70.95 67.3 71.25 67.4 71.45 67.65 71.7 67.95 71.6 68.35 71.5 68.8 71.25 69 71 69.25 70.5 69.25 69.765234375 69.2931640625 69.45 69 69.4337890625 68.954296875 69.4 68.9 69.2 68.6 69.3 68.1 69.45 67.6 69.65 67.45
M 61.1 63.4
Q 62.25 63.3 63.25 64.25 63.55 64.55 63.85 65.5 64.05 66 64.2 66.7 64.25 66.9 64.2 67.35 64.2 67.8 64.25 67.9 64.35 68.15 64.5 68.2 64.85 68.25 65.3 68.35 65.927734375 68.49765625 66.4 69 66.55625 69.177734375 66.7 69.4 67.15 70.05 67.1 71.85 65.3 71.8 65.1 71.8 64.9 71.8 64.75 71.8 64.45 71.8 64.3 71.65 64.15 71.55 64.2 71.15 64.2 70.75 64.35 70.65 64.4 70.6 64.6 70.45 64.85 70.3 65.4 70.5 64.55 69.7 63.7 70.35 63.4 70.6 63.35 71.05 63.3 71.3 63.35 71.6 63.35 71.65 63.35 71.75 63.35 71.85 63.3 71.9 63.15 72 62.25 72.1
L 63.2 72.45
Q 63.35 72.55 63.4 72.55 63.45 72.65 63.45 72.8 63.35 73.3 63.55 73.75 63.75 74.2 64.15 74.35 64.65 74.5 64.9 74.4 65.05 74.35 65.25 74.15 64.9 74.25 64.65 74.1 64.45 74 64.2 73.7 64 73.45 64.1 73.1 64.2 72.8 64.5 72.7 64.8 72.55 67.05 72.65
L 67.05 76
Q 67.05 77.9 67 79 66.8 79.1 65.8 79.15 64.8 79.15 64.5 79.05 64.2 79 64.1 78.55 64.05 78.1 64.2 77.95 64.4 77.7 64.55 77.65 64.85 77.5 65.35 77.65 64.95 77.2 64.45 77.25 64.1 77.25 63.7 77.6 63.45 77.8 63.4 78.25 63.35 78.6 63.45 78.75 63.5 78.85 63.4 79 63.3 79.15 63.15 79.15 62.75 79.25 62.35 79.25 62.75 79.55 62.8 79.55 63 79.7 63.25 79.7 63.45 79.7 63.5 79.8 63.5 79.85 63.45 79.95 63.45 80 63.4 80.35 63.4 80.584375 63.45 80.75 63.487890625 80.8671875 63.55 80.95 63.9 81.55 64.4 81.6 64.85 81.65 65.25 81.35 64.75 81.4 64.5 81.25 64.4 81.15 64.1 80.8 64.087890625 80.77578125 64.05 80.75 64.012109375 80.563671875 64.1 80.3 64.2 80 64.45 79.85 64.6 79.75 65.65 79.8 66.55 79.8 66.8 79.85 67.15 79.9 67.05 80.15 67.0244140625 80.2783203125 67 80.75 67 81.19609375 67 81.95 67 82.3 67.05 83.75 66.55 83.8 65.75 84 64.9 84.25 64.5 84.35
L 61.55 85.05 60.95 84.7 61 82.45
Q 61 82.35 60.95 81.15 60.941015625 80.942578125 60.9 80.75 60.9 79.873828125 60.9 79.3 60.95 78.65 60.95 76.6 60.95 74.65 61 74.3 61 73.9 60.95 72.3 60.9 70.75 60.9 70.4 60.973046875 69.633203125 60.95 69 60.9634765625 68.7658203125 60.95 68.55 60.95 68.45 60.95 68.05 61 67.65 61 67.05 61 66.5 61.05 65.2 61.1 63.8 61.1 63.4
M 69.95 69.75
Q 70 69.7 70.2 69.7
L 70.45 69.7
Q 70.6 69.65 70.75 69.7 71.15 69.85 71.1 70.2 71.05 70.4 71 72.75 71 73 71 74.15 71.05 75.25 71.05 75.5
L 70.85 79
Q 70.85 79.504296875 70.85 80.75 70.85 80.9865234375 70.85 81.25 70.85 83.05 70.9 83.25 70.95 83.4 70.85 83.75
L 70.8 83.9
Q 70.3 83.8 69.5 83.75
L 69.5 82.75
Q 69.45 82 69.55 80.75 69.75 79.5 69.7 79 69.65 78.55 69.65 77.2 69.65 75.9 69.7 75.4 69.7 75.15 69.7 74 69.7 73 69.75 72.8 69.9 71.7 69.85 71.15
L 69.85 70
Q 69.85 69.8 69.95 69.75
M 74.6 70.7
L 74.75 70.65 76.05 70.55
Q 76.7 70.55 77.65 70.65 77.85 70.7 78.05 70.65 78.15 70.6 78.35 70.55
L 78.6 70.55 78.65 74.35
Q 77.3 74.4 76.8 74.4 76.6 74.4 76.15 74.3 75.75 74.25 75.55 74.25
L 74.75 74.3 74.6 74.35
Q 74.4 74.35 74.4 74.2
L 74.55 70.95 74.6 70.7
M 72.1 74.05
Q 72.15 73.9 72.1 73.45 72.1 73 72.1 72.9 72.1 72.35 72.1 72.3 72.05 72 72.25 71.9
L 73.75 71.1 73.75 72.25
Q 73.7 72.45 73.75 73.25 73.8 73.9 73.8 74.1 73.85 74.35 73.65 74.35
L 72.35 74.4
Q 72.15 74.4 72.1 74.3 72.05 74.2 72.1 74.05
M 49.85 68
Q 50.2 67.8 50.5 67.85 51.15 67.9 51.55 68.45 51.715234375 68.656640625 51.7 69 51.70859375 69.071875 51.7 69.15 51.65 69.7 51.3 69.8 50.85 69.9 50.5 69.85 50.05 69.8 49.8 69.55 49.55 69.3 49.45 69.2 49.40859375 69.1171875 49.4 69 49.370703125 68.834375 49.4 68.6 49.45 68.2 49.85 68
M 42.7 70.55
L 45.35 70.55
Q 45.55 70.55 46.65 70.55 46.8 70.55 46.8 70.75
L 46.9 74.2
Q 46.9 74.25 46.85 74.3
L 46.75 74.35
Q 44.85 74.25 44.2 74.35
L 42.7 74.35 42.7 70.55
M 47.5 71.15
Q 47.45 71 47.5 71 47.55 71 47.7 71.05 47.85 71.1 48.3 71.4 48.75 71.7 48.8 71.8 48.9 72 48.9 72.25 48.9 72.45 48.95 73.1 49 73.75 49 73.95 49.05 74.15 49.05 74.2 49.05 74.3 48.85 74.35 48.7 74.35 48.25 74.35 47.8 74.35 47.7 74.35 47.55 74.35 47.55 74.05 47.55 71.35 47.5 71.15
M 50 72.8
Q 49.95 71.7 50 71.5
L 50 70.75 50.85 70.65
Q 51.1 70.6 51.15 70.65 51.2 70.7 51.2 70.85 51.2 70.9 51.25 71.6 51.35 72.3 51.25 72.95 51.15 73.4 51.2 73.85 51.2 74.1 51.25 74.35 51.25 74.5 51.25 75.35 51.3 76.2 51.25 76.5 51.2 76.8 51.2 78.45 51.25 80.3 51.25 80.55
L 51.05 84.65 50.7 84.7
Q 50.25 84.8 50.05 84.85
L 50.05 81.9
Q 50.1 79.6 50.1 78.9 50.1 78.15 50.05 77.75 50.05 77 50 76.5 49.95 76.1 50.05 75.3 50.1 74.5 50.1 74.25 50.05 73.9 50 72.8
M 58.3 64.3
Q 58.85 63.8 59.65 63.55 60 63.45 60.3 63.4 60.3 66.1 60.25 66.4 60.2 66.8 60.3 67.65 60.3 67.9 60.25 68.65 60.2388671875 68.838671875 60.2 69 60.2 69.5666015625 60.2 69.8
L 60.2 75.4
Q 60.2 78.5 60.2 79.05 60.25 79.6 60.25 80.75
L 60.25 81.15
Q 60.25 81.55 60.2 81.75 60.15 82 60.2 84.35 59.55 84.1 58.1 83.95 56.4 83.75 55.5 83.8 55.3205078125 83.8224609375 55 83.85 54.6064453125 83.9396484375 54 84.05 53.85 81.85 53.95 81.5 54 81.35 54 80.6
L 54.05 79.95 56.15 79.85
Q 56.75 79.8 56.95 80.05 57.1341796875 80.1880859375 56.9 80.75 56.919921875 80.7984375 56.9 80.85 56.85 81.05 56.6 81.2 56.3 81.35 55.9 81.25 56.1 81.45 56.3 81.5 56.5 81.55 56.9 81.5 57.397265625 81.4171875 57.65 80.75 57.7072265625 80.6125 57.75 80.45 57.8 80.2 57.75 79.9
L 57.65 79.65 58.8 79.2 57.7 79.05
Q 57.75 78.65 57.75 78.1 57.7 77.75 57.35 77.45 56.95 77.1 56.55 77.15 56.15 77.15 55.9 77.45 55.75 77.55 55.7 77.7
L 55.95 77.6
Q 56.25 77.5 56.45 77.5 56.65 77.5 56.85 77.75 57 77.95 57.05 78.25 57.1 78.45 56.85 78.75 56.65 79 56.3 79.1 56.05 79.15 55.15 79.15 54.3 79.15 54.2 79.15 54 79.15 53.95 79 53.95 78.9 54 77.85 54 76.75 54.05 76.1 54.1 75.55 54.1 74.2 54.05 72.95 54.05 72.9 54.05 72.75 54.05 72.7 54.15 72.65 54.3 72.6 54.45 72.6 55.45 72.6 56.45 72.6 56.55 72.65 56.9 72.7 56.95 72.8 57 72.85 57 73.15 57 73.4 56.95 73.55 56.85 73.75 56.7 73.85 56.45 74.1 55.85 74.15 56.4 74.55 57.15 74.2 57.8 73.9 57.7 72.45 58.05 72.35 58.95 72 58.25 71.95 57.95 71.9 57.75 71.9 57.75 71.8 57.7 71.65 57.75 71.4 57.9 71 57.4 70.25 57.25 69.95 56.7 69.95 56.1 69.9 55.75 70.5 56.05 70.3 56.45 70.4 56.85 70.55 57 70.85 57.15 71.15 56.95 71.45 56.75 71.7 56.4 71.8 56.1 71.85 55.05 71.85
L 54.05 71.8 54.3 70.2
Q 54.5470703125 69.3880859375 54.85 69 54.9677734375 68.83828125 55.1 68.75 55.45 68.5 56.6 68.2 56.75 68.15 57.05 68.1 57.25 67.95 57.25 67.4 57.2 66.55 57.5 65.65 57.85 64.65 58.3 64.3
M 54.75 85.25
Q 54.8810546875 85.2302734375 55 85.2 55.7892578125 85.1130859375 56.05 85.2 56.25 85.25 57.25 85.35 58.2 85.5 58.75 85.7 60.65 86.45 61.15 86.95 61.2908203125 87.1015625 61.4 87.25 61.8798828125 87.76796875 62.2 88.25 62.5765625 88.770703125 62.8 89.25 62.8517578125 89.3765625 62.9 89.5 63 89.85 63.3 90.4 63.5 90.9 63.7 91.5 62.6587890625 90.00625 62 89.25 61.9615234375 89.17109375 61.9 89.1 61.5126953125 88.6205078125 61.1 88.25 60.3890625 87.615625 59.6 87.3 60.0259765625 87.9388671875 60.2 88.25 60.3064453125 88.3775390625 60.35 88.45 60.525 88.8 60.65 89.25 60.825 89.7 60.95 90.25 60.5833984375 89.721875 60.2 89.25 59.75 88.7138671875 59.25 88.25 58.72890625 87.7294921875 58.15 87.3 58.1173828125 87.274609375 58.05 87.25 57.2265625 86.5927734375 56.6 86.4
L 56.35 86.35 56.55 86.55
Q 56.8296875 86.8296875 57.15 87.25 57.4134765625 87.58125 57.7 88 57.79140625 88.1263671875 57.85 88.25 58.2326171875 88.7701171875 58.45 89.25 58.8404296875 89.9701171875 58.95 90.6 58.4515625 89.8732421875 57.9 89.25 57.43828125 88.711328125 56.95 88.25 56.6275390625 87.959765625 56.3 87.7 55.9935546875 87.4419921875 55.7 87.25 55.321484375 86.9642578125 55 86.8 54.8681640625 86.7794921875 54.75 86.75 54.45 86.65 54.45 86.7
L 54.6 86.9
Q 54.773046875 87.03828125 54.95 87.25
L 55 87.25
Q 55.3748046875 87.648046875 55.85 88.25 56.280859375 88.774609375 56.6 89.25 57.1498046875 90.043359375 57.4 90.7 56.614453125 89.876953125 55.95 89.25 55.7140625 89.0388671875 55.5 88.85 54 87.45 53.05 87.25 54.05 88.4 54.55 89.05 54.61640625 89.149609375 54.65 89.25 55.183203125 90.0552734375 55.45 90.9 55.55 91.2 55.45 91.2 55.35 91.2 55.25 91.05 54.85 90.45 54.05 89.55 53.900390625 89.394140625 53.75 89.25 52.731640625 88.2376953125 51.9 87.8 51.7 87.7 51.55 87.7 51.4 87.75 51.6 87.9 51.8876953125 88.091796875 52.65 89.25 52.7154296875 89.2990234375 52.75 89.35 53.7 90.7 53.9 91.35 53.95 91.6 53.9 91.6 53.85 91.6 53.7 91.5 53.1 90.7 52.35 89.9 51.9904296875 89.5404296875 51.65 89.25 50.5623046875 88.328125 49.65 88.1 50.225 88.675 50.7 89.25 51.0236328125 89.625 51.3 90 51.35 90.05 52.05 91.15 52.15 91.4 52.15 91.45 52.05 91.5 51.8 91.3 50.3375 89.959375 49.35 89.25 48.69921875 88.7953125 48.25 88.6 47.95 88.5 47.9 88.55 47.85 88.65 48.15 88.85 48.3828125 89.024609375 48.6 89.25 48.7828125 89.4119140625 48.95 89.6 49.4 90.2 49.75 90.9 48 89.8 46.75 89.3 46.6326171875 89.270703125 46.5 89.25 46.3060546875 89.2 46.2 89.2 46.118359375 89.2 46.1 89.25 46.14296875 89.32265625 46.35 89.5 47.05 89.95 47.7 91.05 47.25 90.9 46.35 90.55 45.65 90.25 45.4 90.15 45.1 90.1 44.5 90.25
L 43.95 90.4
Q 44.4 89.95 45 89.45 45.118359375 89.3462890625 45.2 89.25 46.254296875 88.3703125 46.75 88.1 47.723046875 87.5275390625 48.2 87.25 48.5931640625 87.0427734375 48.7 87 48.8 87 49.05 86.85 49.3 86.75 49.45 86.7
L 50.05 86.45
Q 50.65 86.2 51.3 86.05 52.4 85.8 53.4 85.5 54 85.35 54.75 85.25
M 49.05 75.25
L 49.1 76.05
Q 49.15 76.95 49.1 77.2
L 49.05 78.45
Q 49.05 78.7 48.8 78.7 48.45 78.8 47.2 78.95 46.15 79 45.9 79.05 45.75 79.1 45.45 79.05
L 45.2 79.05
Q 45.2 77.75 45.2 77.3 45.15 75.85 45.25 75.5 45.3 75.3 45.35 75.25 45.4 75.15 45.55 75.15 46.15 75.1 46.65 75.15 46.95 75.2 47.9 75.2
L 49.05 75.25
M 59.2 93.35
Q 58.7 93.7 58.4 94.15 58.15 94.45 58.2 93.9 58.3 93.35 58.5 93.15 57.8 93.05 56.7 93.5 57.45 92.7 58.75 92.4 59.7 92.15 61.2 92.15 62.65 92.15 64 92.25 65.65 92.4 66.35 92.65 66.8 92.8 67.8 93 68.55 93.2 68.75 93.3 69.6 93.85 70.2 94.15 70.5 94.3 71.55 94.9 72.55 95.5 73 95.75 73.55 96.1 74.2 96.75 72.7 98.3 72.3 98.5 72.25 98.15 72.35 97.55 72.45 97.05 72.5 96.9 72.6 96.85 72.5 96.8 72.45 96.75 72.35 96.85 72.1 97.05 71.5 97.6 70.7 98.4 70.3 98.95 70.35 98.45 70.7 97.3 71 96.25 71.1 96 71.2 95.85 71.1 95.85 71.05 95.85 70.9 96 70.6 96.3 69.9 97.25 69 98.5 68.5 99.5 68.5 98.6 68.95 97.15 69.3 95.9 69.6 95.35 68.45 96.15 67.6 97.6 67.1 98.4 66.7 99.4 66.6 98.5 67.35 96.55 67.95 95 68.2 94.75 68.3 94.6 68.25 94.6 68.2 94.55 68.05 94.65 66 96.75 65.1 99.35 65 98.8 65.5 97.1 65.95 95.45 66.35 94.7 66.55 94.4 66.4 94.45 66.3 94.45 66.15 94.6 65.7 95.05 65.2 95.75 64.35 96.9 63.9 98 64 96.65 64.55 95.25 64.95 94.25 65.35 93.65 64.6 94.2 63.65 95.3 62.75 96.3 62.45 97 62.4 96.2 62.9 94.8 63.45 93.5 63.8 93.25 62.7 93.7 61.8 94.65 61.2 95.3 61.05 95.7 60.95 95.9 60.9 95.85 60.85 95.85 60.85 95.7 60.85 95.5 61.15 94.55 61.45 93.55 61.65 93.25 60.95 93.55 60.4 94.2 60 94.6 59.85 94.95 59.8 95.1 59.7 95.1 59.65 95.1 59.65 94.9 59.65 94.35 59.7 94.15 59.8 93.45 60.3 92.95 60.5 92.7 60.3 92.75 60 92.9 59.85 92.95 59.6 93.05 59.2 93.35
M 76.05 75.35
Q 76.2 75.8 76.2 76.05 76.15 76.2 76.15 77.5 76.15 78.2 76.15 78.85 75.15 78.8 74.85 78.85
L 74.65 78.9
Q 74.5 78.95 74.3 78.95
L 73.9 78.85
Q 73.55 78.75 73.05 78.8 72.6 78.8 72.25 78.75 71.95 78.7 71.95 78.55 71.85 77.5 71.85 77.2 72 76.3 71.95 76.05
L 71.95 75.45 72.8 75.45
Q 73.65 75.45 73.95 75.4 74.35 75.319921875 74.75 75.25 75.1 75.1966796875 75.45 75.15 75.8 75.15 75.9 75.15 76 75.2 76.05 75.35
M 65.55 86.3
Q 65.25 86.1 65.35 86.4 65.4142578125 86.721484375 65.45 87.25 65.4822265625 87.5431640625 65.5 87.9 65.50625 88.0818359375 65.5 88.25 65.5044921875 88.8291015625 65.4 89.25 65.3275390625 89.6837890625 65.15 89.95 65.096484375 89.5892578125 65 89.25 64.9146484375 88.7244140625 64.75 88.25 64.643359375 87.884765625 64.5 87.55 64.423828125 87.38828125 64.35 87.25 64.05234375 86.6619140625 63.85 86.5 63.90703125 86.8853515625 63.9 87.25 63.951953125 87.7708984375 63.9 88.25 63.8767578125 88.6119140625 63.8 88.95 63.6412109375 88.5763671875 63.5 88.25 63.2484375 87.677734375 63.05 87.25 62.7443359375 86.6158203125 62.55 86.3 63.6 86.05 64.8 85.75
L 65.65 85.55
Q 66.65 85.3 67.1 85.25 67.6 85.15 68.45 85.2 69.25 85.2 69.7 85.3 70.6 85.45 71.7 85.85 73.35 86.4 73.85 86.95 73.7412109375 87.0708984375 73.6 87.25 73.38828125 87.6234375 73.1 88.25 72.990234375 88.5673828125 72.85 88.95 72.8060546875 89.081640625 72.65 88.25 72.6244140625 88.134375 72.6 88 72.5125 87.5455078125 72.4 87.25 72.2974609375 86.7 72.2 86.7 72.130859375 86.7 72.05 87.25 71.9962890625 87.4953125 71.95 87.85 71.92421875 88.0640625 71.9 88.25 71.79609375 88.94296875 71.65 89.25 71.63828125 89.342578125 71.6 89.4 71.580078125 89.32421875 71.55 89.25 71.4072265625 88.7060546875 71.25 88.25 71.10625 87.6814453125 70.95 87.25 70.5611328125 86.176171875 70.25 85.95 70.3654296875 86.712109375 70.4 87.25 70.5 87.8771484375 70.5 88.2
L 70.5 88.25
Q 70.54140625 88.80625 70.5 89.25 70.4263671875 89.8541015625 70.2 90.25 70.129296875 89.7375 70 89.25 69.9087890625 88.7361328125 69.75 88.25 69.6369140625 87.892578125 69.5 87.55 69.43828125 87.3923828125 69.35 87.25 68.98828125 86.351953125 68.6 86.05 68.70859375 86.6359375 68.75 87.25 68.7701171875 87.741015625 68.75 88.25 68.7328125 88.571484375 68.7 88.9 68.677734375 89.0849609375 68.65 89.25 68.5056640625 90.2017578125 68.25 90.5 68.231640625 89.8546875 68.15 89.25 68.083203125 88.73515625 67.95 88.25 67.85859375 87.7599609375 67.7 87.3 67.6912109375 87.2748046875 67.65 87.25 67.3423828125 86.2912109375 67.05 85.95 66.9 85.75 66.85 85.8 66.75 85.85 66.8 86.05 66.9439453125 86.481640625 67 87.25 67.0359375 87.5494140625 67.05 87.9 67.059765625 88.0794921875 67.05 88.25 67.0810546875 88.7958984375 67.05 89.25 66.9666015625 90.116796875 66.7 90.65 66.6580078125 89.9146484375 66.55 89.25 66.4708984375 88.7283203125 66.35 88.25 66.2625 87.8875 66.15 87.55 66.0966796875 87.3900390625 66.05 87.25 65.7619140625 86.46953125 65.55 86.3
M 56 64.45
Q 56.5 63.35 56.95 62.8 57.4 62.25 57.9 61.9 58.4 61.6 59.35 61.2 57.65 61.35 55.85 63.3 55.5 63.7 55.15 64.75 54.95 65.3 54.8 65.95 54.65 66.55 54.95 66.35 55.2 66.2 55.25 66.15 55.45 66 55.5 65.75 55.5 65.45 56 64.45
M 63.1 61.25
Q 62.7 61.2 62.55 61.2
L 63.5 61.7
Q 63.9 61.9 64.95 63.3 65.2 63.65 65.45 64.35 65.6 64.75 65.8 65.3 65.9 65.7 65.95 66.2
L 66.45 66.25
Q 66.35 65.9 66.35 65.6 66.35 65.4 66.25 65.05 66.05 64.45 65.9 63.9 65.7 63.2 65.25 62.65 64.8 62.2 64.65 62.05 64.4 61.8 63.9 61.65 63.75 61.6 63.6 61.55 63.5 61.4 63.4 61.35 63.3 61.25 63.1 61.25
M 62.5 58.45
Q 62.45 58.15 62.15 57.95 61.85 57.8 61.65 57.85 61.25 57.85 61.4 57.55 61.5 57.4 61.45 57.25 61.45 57.05 61.3 56.9 61 56.55 60.35 56.75 60.05 56.85 59.9 57.15 59.85 57.4 59.85 57.55 59.95 57.85 59.65 57.85 58.9 57.8 58.8 58.55 58.8 58.95 59 59.15 59.2 59.3 59.55 59.3 59.85 59.25 59.85 59.55 59.8 59.95 59.9 60.15 60.1 60.45 60.65 60.5 61.2 60.55 61.35 60.1 61.5 59.8 61.4 59.5 61.4 59.35 61.5 59.3
L 61.75 59.3
Q 62.2 59.25 62.4 59.05 62.55 58.8 62.5 58.45
M 30.6 83.35
Q 31.35 83.3 32.95 83.1
L 35.75 82.8 31.85 82.7
Q 30.3 82.55 29.75 82.6 29.45 82.6 28.95 82.55
L 28.55 82.5 28.35 82.75
Q 28.2 82.9 28.3 83 28.4 83.15 28.7 83.5
L 28.75 83.5 30.6 83.35
M 31.6 81.6
Q 32.35 81.55 34.2 81.6 34.65 81.6 35.1 81.65 35.4 81.65 35.85 81.7 36.4 81.75 38.95 81.7 36.95 81.4 36.6 81.4 36.3 81.4 34.85 81.25 34.55 81.2 32.05 81.05
L 30.15 80.95 29.65 81.5 30.35 81.55
Q 31.15 81.6 31.6 81.6
M 31.05 77.75
L 31.1 78.05
Q 31.1 78.25 31.35 78.15 33.3 77.8 33.2 77.7 33 77.65 32.05 77.6
L 31.1 77.55
Q 31.05 77.55 31.05 77.75
M 31.15 76.6
L 32.05 76.5
Q 33.05 76.4 33.35 76.3 32.95 76.15 32 76
L 31.15 75.9 31.15 76.6
M 32.55 71.6
L 31.15 71.45 31.15 71.7
Q 31.15 71.95 31.25 72.1 32.05 72.1 33.45 71.9 34.8 71.7 34.35 71.7 34 71.7 32.55 71.6
M 31.15 72.95
L 31.15 73.5 32.6 73.35
Q 34.15 73.2 34.75 73 34.15 72.95 32.6 72.95
L 31.15 72.95
M 31.1 68.95
L 31.1 69.1
Q 31.15 69.1 31.35 69.1 31.5 69.1 32.2 69 32.9 68.95 33.4 68.8
L 31.15 68.35 31.1 68.95
M 31.2 67
L 31.1 67.4
Q 31.1 67.6 31.25 67.6 31.3 67.6 31.95 67.6 32.75 67.5 33.65 67.3 33.2 67.3 32.15 67.15
L 31.2 67
M 31.1 63.45
Q 31.2 63.65 31.35 63.55 31.45 63.55 32.4 63.45 32.85 63.4 33.3 63.35 33 63.15 32.5 63.1
L 31.1 62.9 31.1 63.45
M 31.1 64.65
Q 31.1 64.85 31.3 64.8 31.5 64.75 32.7 64.65 33.35 64.6 34.65 64.5 33.3 64.4 32.9 64.4 32.65 64.4 32.4 64.35
L 31.95 64.25
Q 31.8 64.2 31.45 64.25
L 31.2 64.25 31.1 64.65
M 30.45 50.85
Q 31.6 50.9 32.65 50.5
L 31.35 50.4
Q 31.1 50.35 30.75 50.3
L 30.45 50.2 30.45 50.85
M 30.55 49.25
Q 30.55 49.4 30.65 49.4 30.75 49.4 32.35 49.3 32.5 49.25 32.45 49.2 32.45 49.15 32.35 49.1 32.3 49.1 31.55 48.9
L 30.55 48.7 30.55 49.25
M 30.55 47.85
L 31.35 47.9
Q 31.75 47.9 32.6 47.7
L 31.55 47.5
Q 31.3 47.5 30.9 47.35
L 30.55 47.25 30.55 47.85
M 31.8 34.35
Q 32.15 34.3 32.25 34.1
L 31.5 33.9 31.5 34.4 31.8 34.35
M 31.45 32.85
L 31.45 33.35
Q 32.6 33.35 32.65 33.2 32.7 33.1 32.5 33.1
L 32.15 33.05 31.45 32.85
M 68.6 44.75
L 68.55 44.35 67.5 44.6 68.6 44.75
M 68.55 45.6
L 68.55 45.15 67.4 45.45 68.55 45.6
M 68.7 41.5
L 68.7 40.9 66.75 41.3 68.7 41.5
M 68.7 42.6
L 68.7 42.05 66.7 42.4 68.7 42.6
M 68.65 39.3
L 68.7 38.8 67.2 39 68.65 39.3
M 68.7 38.3
L 68.75 37.75
Q 68 37.75 67.25 38.05
L 68.7 38.3
M 68.75 36.1
L 68.75 35.7 66.25 35.8 68.75 36.1
M 66.4 34.95
L 67.8 35.1
Q 67.95 35.1 68.75 35.15
L 68.7 34.6 66.4 34.95
M 63.6 28.6
L 65.65 28.85 65.6 28.25 63.6 28.6
M 63.75 27.5
L 65.65 27.8 65.65 27.05 63.75 27.5
M 65.5 26.55
Q 65.7 26.45 65.55 26
L 63.6 26.2
Q 65.25 26.65 65.5 26.55
M 77.6 32.85
L 76.45 32.6 76.45 33.25 77.6 32.85
M 77.6 33.85
L 76.45 33.65 76.45 34.25 77.6 33.85
M 72.3 28.5
L 72.25 27.8 70.35 28.25 72.3 28.5
M 72.15 27.4
L 72.2 26.85 70.35 27.1 72.15 27.4
M 72.3 26.4
L 72.4 25.7 70.5 26 72.3 26.4
M 33.05 43.25
L 32.65 43.2 32.7 43.75 33.1 43.7
Q 33.6 43.6 33.8 43.45 33.5 43.3 33.05 43.25
M 33.25 40.65
Q 33.8 40.6 33.95 40.55 34.2 40.45 34.15 40.4 34.1 40.35 33.9 40.3
L 32.75 40.2 32.8 40.65 33.25 40.65
M 32.7 41.6
L 32.7 42.15 33.4 42.15
Q 33.55 42.1 33.95 41.9 33.65 41.7 33.4 41.65
L 32.7 41.6
M 33.5 38.65
Q 33.4 38.6 33 38.65
L 32.6 38.65 32.65 39.1 33.45 39.1
Q 33.7 39.1 34.2 38.85
L 33.5 38.65
M 37.4 38.35
Q 36.9 38.35 36.65 38.5 36.35 38.7 36.15 38.8 35.85 39 35.75 39.2 35.65 39.4 35.5 39.95 35.4 40.45 35.4 41.5 35.4 42.1 35.4 43 35.4 44.25 35.45 45.05 36.55 45.3 38.95 45.1 38.988671875 43.9603515625 39 43 39.05 41.473828125 39.05 40.4 39 38.25 37.4 38.35
M 40.8 43.6
L 42.45 43.75 42.45 43.15 40.8 43.6
M 42.55 42.2
L 42.55 41.5 40.95 41.85 42.55 42.2
M 40.85 40.6
L 42.65 40.9 42.65 40.15
Q 41.65 40.25 40.85 40.6
M 40.65 38.8
L 41.05 38.95
Q 41.45 39.15 41.65 39.2 42 39.25 42.65 39.2
L 42.7 38.6 40.65 38.8
M 43.75 34.75
L 43.85 34.15 42.55 34.55 43.75 34.75
M 43.85 33.65
L 43.85 32.8
Q 43.05 33.15 42.5 33.35 43.05 33.7 43.85 33.65
M 60.3 34.95
Q 59.35 34.9 59.1 35.8 58.95 36.2 59.05 36.95 59.05 37.15 58.95 38.3 58.9 39.55 58.9 40.2 58.9 40.9912109375 58.95 43 58.966015625 44.0375 59 45.4 59 45.55 59.05 45.6 59.05 45.7 59.2 45.7 60.95 45.7 61.25 45.65 61.65 45.6 61.65 45.35 61.6 44.2 61.6 43.1 61.6005859375 43.0498046875 61.6 43 61.65 38.0958984375 61.65 37.7 61.65 36.5 61.5 35.85 61.4 35.3 61.05 35.1 60.8 35 60.3 34.95
M 51.85 45.85
L 52.1 45.85
Q 52.35 45.85 52.5 45.85 52.8 45.85 53.35 45.65
L 51.9 45.4 51.85 45.85
M 51.8 44.45
L 51.8 44.9 52.4 44.9
Q 52.75 44.85 53.4 44.6
L 51.8 44.45
M 51.95 41.2
L 51.95 41.7 52.5 41.65
Q 52.7 41.55 54.2 41.35
L 51.95 41.2
M 51.9 42.2
L 51.9 42.7 54.15 42.4 51.9 42.2
M 53.15 39.1
L 52 38.85 52 39.35 53.15 39.1
M 52 37.9
L 52 38.35 53.15 38.15 52 37.9
M 53.15 35.8
L 52.05 35.75 52.1 36.25 53.15 36.1
Q 54.3 36 54.7 35.85 54.35 35.8 53.15 35.8
M 52.05 34.75
L 52.05 35.2 53.1 35.25
Q 54.2 35.25 54.8 35.15
L 52.05 34.75
M 65.9 32.7
L 66.8 31.15 66 31.15 65.25 32.8 65.9 32.7
M 62.9 31.25
L 62.05 31.3 62 32.85 62.3 32.8 62.9 31.25
M 61.35 31.25
L 60.9 31.3 61.05 32.8 61.35 31.25
M 63.45 32.75
L 64.35 31.15 63.7 31.2
Q 63.65 31.2 63.6 31.25 63.5 31.3 63.5 31.4 63.5 31.55 63.2 32.75
L 63.45 32.75
M 64.2 32.7
L 64.7 32.75
Q 64.9 32.6 65.6 31.15
L 64.85 31.2 64.2 32.7
M 56.8 32.8
L 57.2 32.8 57.15 31.3 56.4 31.3 56.8 32.8
M 59.9 31.3
L 59.4 31.3 59.65 33 59.9 31.3
M 58.55 32.85
L 58.6 31.3 57.75 31.35 58.05 32.85 58.55 32.85
M 54.5 32.8
L 54.9 32.8 54.5 31.25 53.5 31.2 54.5 32.8
M 54.85 31.3
L 55.65 32.8 56.15 32.8 55.65 31.3 54.85 31.3
M 49.35 28.4
Q 49.1 28.3 48.75 28.35
L 48.5 28.4 48.5 28.9 50.25 28.65 49.35 28.4
M 49.2 27.3
L 48.5 27.2 48.55 27.8 49.25 27.7
Q 50.05 27.55 50.35 27.4 50 27.4 49.2 27.3
M 49.1 26.25
L 48.5 26.05 48.55 26.75 49.15 26.7
Q 49.8 26.65 50.15 26.5 49.75 26.4 49.1 26.25
M 55.4 25.95
L 55.35 26.6 57.35 26.35 55.4 25.95
M 56 29
Q 56.429296875 28.887890625 57.5 28.65 55.95 28.4 55.4 28.45 55.35 28.8 55.45 28.95 55.479296875 28.979296875 55.5 29 55.6234375 29.05 55.8 29.05 55.8724609375 29.029296875 56 29
M 57.8 27.45
Q 57.1 27.4 56.55 27.3
L 55.4 27.2 55.35 27.95 56.25 27.8
Q 57.3 27.6 57.8 27.45
M 92.05 81.3
L 91.45 80.65 85.4 81.1
Q 86.711328125 81.245703125 91.75 81.3 91.8984375 81.2986328125 92.05 81.3
M 91.75 82.8
Q 92.3869140625 82.85 92.65 82.85 93.1 82.9 93.15 82.55
L 92.5 81.95
Q 92.1826171875 81.9828125 91.75 82 90.20703125 82.121875 87.2 82.2 88.1 82.45 90.3 82.65 91.1765625 82.7447265625 91.75 82.8
M 90.25 78.05
L 90.25 77.5 87.9 77.65 90.25 78.05
M 90.25 76.7
L 90.3 75.95 88.1 76.2 90.25 76.7
M 90.3 72.25
L 90.25 71.65
Q 88.35 71.65 86.7 71.8 87.6 72 90.3 72.25
M 90.25 73.35
L 90.25 72.85
Q 88.9 72.85 86.9 73 87.8 73.15 90.25 73.35
M 90.15 69.1
L 90.2 68.45
Q 89.25 68.7 88 68.85 88.8 69.1 90.15 69.1
M 88.35 67.5
Q 87.85 67.6 88.2 67.7 88.5 67.75 90.15 67.8
L 90.25 67 88.35 67.5
M 90.2 64.85
L 90.25 64.15 86.85 64.45 90.2 64.85
M 90.2 63.6
L 90.25 62.9 88.4 63.3 90.2 63.6
M 49 57.5
Q 49 56.9 48.6 56.5 48.2 56.1 47.7 56.1 47.25 56.05 46.8 56.5 46.45 56.9 46.35 57.3 46.25 57.6 46.2 58.9 46.2 60 46.2 60.25 46.25 60.4 46.2 60.55 46.1 60.8 46.1 60.95 46.1 63.75 46.15 64.15 46.2 64.45 46.25 64.55 46.35 64.6 46.5 64.7 46.55 64.75 46.9 64.95 47.2 65.1 47.35 65.15 47.4 65.2 47.85 65.4 48.25 65.6 48.4 65.65 48.6 65.7 48.75 65.5 48.9 65.35 48.9 65.15
L 48.9 63.3
Q 48.9 63 48.95 62.65 49 62 49 61.05 48.95 60.1 49 59 49 57.7 49 57.5
M 74.75 61.4
Q 74.8 60.2 74.8 59.4 74.8 58.340234375 74.75 57.7
L 74.75 61.4
M 39.15 59.5
Q 39.25 59.7 39.4 60 39.55 60.25 39.95 60.35 40.35 60.45 40.7 60.3 40.85 60.25 41.05 60.1 41.1 60.1 41.3 60.25 41.55 60.4 42 60.4 42.5 60.4 42.8 60.1 42.85 60.05 43.25 59.45 42.75 59.9 42.1 59.85 41.65 59.8 41.35 59.6 41.2 59.5 41.15 59.5 41.05 59.45 40.85 59.55 40.05 60.05 39.15 59.5
M 39.5 56.75
Q 39.65 57 39.9 57.2 40.2 57.35 39.9 57.55 39.75 57.7 39.6 58.05 39.5 58.45 39.75 58.7 40.05 59 40.35 59.05 40.7 59.05 41.15 58.6 41.6 58.9 41.8 58.95 42.2 59.05 42.6 58.75 42.95 58.4 42.75 57.95 42.65 57.85 42.3 57.4 42.8 56.95 42.9 56.75 43.15 56.3 42.7 55.95 42.45 55.7 41.95 55.9 41.4 56.2 41.15 56.3 40.7 55.8 40.35 55.7 40 55.65 39.6 56 39.25 56.3 39.5 56.75
M 35.4 56.65
Q 35.2 56.65 34 56.5 32.7 56.35 32.6 56.35 32.3 56.35 32.45 56.6 32.65 56.95 32.9 56.95 33.15 57 33.9 56.9 34.8 56.8 35.4 56.65
M 32.15 55.25
Q 31.9 55.2 31.85 55.4 31.85 55.45 31.85 55.55 31.9 55.7 32.15 55.7
L 33.4 55.75
Q 34.15 55.75 35.55 55.6
L 33.4 55.4
Q 32.75 55.35 32.15 55.25
M 88.25 57.1
L 89.4 56.45
Q 86.9 56.75 85.1 56.8 86.45 57.05 88.25 57.1
M 82.35 59.65
Q 81.75 60 81.25 59.95 81 59.9 80.65 59.75 80.35 59.6 80.3 59.6 80.25 59.6 80.05 59.75 79.8 59.9 79.55 59.95 79.15 60.02265625 78.75 59.85 78.6 59.8318359375 78.45 59.75 78.35 59.65 78.3 59.7 78.25 59.8 78.35 59.9 78.45 60 78.65 60.25 78.698046875 60.2884765625 78.75 60.3 78.9673828125 60.4595703125 79.25 60.5 79.8 60.6 80.15 60.45 80.35 60.35 80.4 60.25
L 80.75 60.45
Q 81.15 60.6 81.45 60.55 81.95 60.4 82.2 60.05 82.35 59.85 82.35 59.65
M 82.05 56.35
Q 81.9 56 81.55 55.9 81.25 55.8 80.9 56 80.75 56.1 80.45 56.35 80.3 56.45 80.2 56.4 80.15 56.35 79.95 56.2 79.8 56.05 79.35 56 78.957421875 55.9607421875 78.75 56.05 78.69296875 56.10703125 78.65 56.15 78.25 56.6 78.7 57.1 78.7248046875 57.1296875 78.75 57.15 78.9796875 57.41484375 79.25 57.55 79 57.75 78.85 58 78.790625 58.0849609375 78.75 58.15 78.573046875 58.5166015625 78.75 58.75 78.772265625 58.817578125 78.8 58.85 79.15 59.25 79.65 59.05 80.05 58.95 80.15 58.75 80.2 58.65 80.25 58.65 80.35 58.65 80.35 58.7 80.5 58.9 80.85 59.05 81.25 59.25 81.55 59.05 82 58.65 81.9 58.2 81.85 57.9 81.6 57.7 81.5 57.55 81.5 57.5 81.45 57.4 81.6 57.35 81.75 57.25 82 56.9 82.2 56.65 82.05 56.35
M 89.85 55.35
Q 89.85 55.1 89.55 55.15 88.35 55.45 85.5 55.7 86.7 55.85 89.85 55.75
L 89.85 55.35
M 89.6 50.45
L 89.55 49.8
Q 88.8 50.05 87.6 50.1 88.15 50.35 89.6 50.45
M 89.6 47.65
L 89.6 47
Q 88.85 47.35 87.55 47.55 88 47.7 89.6 47.65
M 89.55 49.05
L 89.6 48.3 87.6 48.85 89.55 49.05
M 78.15 43.8
L 79.7 43.45 78.15 43.15 78.15 43.8
M 78.1 40.6
L 78.1 41.1 78.6 41
Q 78.676171875 40.9873046875 78.75 40.95 79.2572265625 40.8935546875 79.65 40.85 79.2837890625 40.575390625 78.75 40.55 78.70078125 40.55 78.65 40.55
L 78.1 40.6
M 78.15 41.9
L 78.15 42.45 79.5 42.25 78.15 41.9
M 78.75 38.3
L 78.95 38.3
Q 79.2 38.2 79.85 37.95
L 78.05 37.8 78.1 38.35 78.75 38.3
M 78.85 39.25
L 78.75 39.2 78.15 39.15 78.15 39.85 78.7 39.75
Q 78.7251953125 39.7458984375 78.75 39.75 79.3208984375 39.6478515625 79.8 39.6 79.6 39.4 78.85 39.25
M 86.85 43.5
L 87.85 43.85 87.9 43.3 86.85 43.5
M 83.05 37.9
Q 82.2 37.85 81.6 38.6 81.15 39.2 81.05 40 81 40.65 81 43.9
L 80.95 45.2 82.5 45.25
Q 83.05 45.25 84.45 45.1 84.65 45.1 84.7 45.05 84.8 44.95 84.8 44.8
L 84.8 43.15
Q 84.9 40.45 84.75 39.25 84.7 38.6 84.2 38.25 83.75 37.9 83.05 37.9
M 87.95 41.05
L 87.95 40.45
Q 87.1 40.45 86.6 40.7 87 40.95 87.95 41.05
M 87.85 41.85
L 86.6 42.15 87.85 42.45 87.85 41.85
M 87.95 39.65
L 87.95 39.1
Q 86.85 39.1 86.4 39.3 86.7 39.5 87.95 39.65
M 88.05 38.35
Q 88.05 37.9 87.9 37.85 87.7 37.75 87.3 37.8 86.75 37.85 86.4 38.05 86.55 38.1 86.75 38.2 86.95 38.3 87.05 38.35 87.3 38.4 88.05 38.35
M 89.05 32.8
L 89 32.2 88.2 32.5 89.05 32.8
M 89.05 34
L 89.05 33.25
Q 88.6 33.3 88.05 33.65
L 89.05 34 Z"/>
</g>
</defs>

<g transform="matrix( 1, 0, 0, 1, 0,0) ">
<use xlink:href="#Layer0_0_FILL"/>
</g>
</svg>
